<?xml version="1.0" encoding="UTF-8"?>
<svg version="1.1" viewBox="0 0 1280 1280" xmlns="http://www.w3.org/2000/svg">
<path transform="translate(755.62 69.312)" d="m0 0c1.75 0.03 1.75 0.03 3.54 0.07 3.4 0.07 6.79 0.15 10.19 0.23 1.51 0.04 1.51 0.04 3.06 0.07 5.7 0.16 11.34 0.54 17.02 1.09 3.67 0.32 7.34 0.42 11.02 0.47 1.54 0.04 3.08 0.07 4.63 0.1 2.36 0.05 4.72 0.09 7.08 0.13 24.91 0.44 24.91 0.44 32.21 3.54 3.53 1.33 7.05 1.61 10.78 1.95 1.59 0.16 3.19 0.33 4.79 0.49 2.5 0.24 5 0.49 7.5 0.72 2.42 0.23 4.85 0.48 7.27 0.73 0.74 0.07 1.48 0.13 2.24 0.2 4.64 0.48 7.95 1.75 12.05 3.9h4v2c0.7-0.03 1.4-0.05 2.12-0.07 8.05-0.16 14.1 0.83 21.44 4.07 5.56 2.33 11.17 2.91 17.11 3.51 4.19 0.62 6.36 1.52 9.33 4.49 2.07 0.38 4.15 0.68 6.24 0.93 4.84 0.68 8.52 1.53 12.76 4.07 4.78 2.26 9.83 3.05 15 4v2c0.57 0.14 1.15 0.29 1.74 0.43 2.09 0.53 4.17 1.05 6.26 1.57 0.33-0.66 0.65-1.32 1-2 0.33 1.32 0.65 2.64 1 4 3.96 0.49 3.96 0.49 8 1v2c4.37 1.86 8.75 2.96 13.37 4.02 3.04 1.13 4.37 2.7 6.63 4.98 2.13 0.71 2.13 0.71 4.37 0.93 4.71 0.86 6.98 2.96 10.63 6.07 2 0.66 2 0.66 4.12 1.06 4.26 1.03 4.91 1.97 7.88 4.94 2.93 1.21 5.93 2.13 9 3v2c0.84 0.31 1.68 0.63 2.55 0.95 1.1 0.43 2.19 0.86 3.32 1.3 1.64 0.62 1.64 0.62 3.3 1.26 3.14 1.65 3.38 2.45 4.83 5.49 2.11 0.76 2.11 0.76 4.5 1 2.4 0.31 2.4 0.31 4.5 1 1.11 1.97 1.11 1.97 2 4 1.97 1.05 3.97 2.04 6 3 1.81 1.22 3.57 2.51 5.33 3.81 1.79 1.32 1.79 1.32 4.35 2.75 2.51 1.56 4.38 3.21 6.32 5.44v2c0.59 0.1 1.19 0.2 1.81 0.31 2.58 0.81 3.3 1.77 5.19 3.69 2.71 2.24 5.46 4.44 8.21 6.65 2.75 2.32 5.27 4.77 7.79 7.35 0.74 0.72 1.48 1.44 2.24 2.19 2.53 2.58 5 5.2 7.44 7.87 0.77 0.84 1.54 1.67 2.33 2.54 1.74 2.1 2.8 3.97 3.99 6.4 0.65 0.33 1.32 0.66 2 1v3h2c0.64 1.45 0.64 1.45 1.31 2.93 1.39 3.34 1.39 3.34 4.69 4.07 0.12 1.36 0.12 1.36 0.24 2.75 0.86 3.7 2.05 4.72 4.76 7.25v3h2c0.48 1.56 0.96 3.12 1.43 4.69 0.4 1.3 0.4 1.3 0.81 2.63 0.72 2.55 1.27 5.08 1.76 7.68 0.66-0.66 1.31-1.32 2-2 2.03 8.17 2.03 8.17 1.87 12.12 0.18 4.12 1.98 6.36 4.13 9.88 4.17 13.58 3.49 34.04-2 47-1.91 4.86-2.41 9.34-2.76 14.51-0.24 2.49-0.24 2.49-1.24 5.49h-2c-1.49 4.95-1.49 4.95-3 10h-2c0.32 1.65 0.66 3.3 1 5h-2v3c-1.44 1.62-1.44 1.62-3 3-1.82 1.81-1.64 4.55-2 7h-2c-0.25 0.57-0.5 1.15-0.76 1.75-1.41 2.55-3.12 4.27-5.24 6.25 0.65 0.33 1.32 0.66 2 1-0.66 1.32-1.33 2.64-2 4l-1-1-1 2c-2.07 0.62-2.07 0.62-4 1h3c-0.66 1.98-1.33 3.96-2 6h-2v2c-1.34 1.33-2.67 2.66-4 4-0.69 1.03-1.37 2.06-2.07 3.12-1.93 2.88-1.93 2.88-4.93 4.88-0.13 0.95-0.25 1.89-0.38 2.87-0.81 4.08-2.29 4.78-5.62 7.13-2.63 2.49-4.99 4.98-7.26 7.81-0.57 0.72-1.15 1.44-1.74 2.19h-1c-0.95 1.2-1.86 2.44-2.76 3.69-3.86 5.22-8.18 9.26-13.24 13.31-2.76 2.61-5.26 5.29-7.63 8.25-2.37 2.75-2.37 2.75-5.37 3.75-1.03 1.31-2.03 2.65-3 4-3.26 3.44-6.74 6.52-10.36 9.57-1.98 1.72-3.83 3.54-5.64 5.43-0.66-0.33-1.33-0.66-2-1-2.65 1.98-4.88 3.84-6.94 6.43-3.39 4.21-7.18 7.22-12.06 9.57l-1 2c-2.07 0.62-2.07 0.62-4 1 0.65 0.33 1.32 0.66 2 1-7.43 4.28-7.43 4.28-11 6v2c-1.98 1.43-3.93 2.72-6 4-1.42 0.87-2.84 1.75-4.26 2.62-0.66 0.41-1.33 0.81-2.01 1.23-1.88 1.16-1.88 1.16-3.73 3.15h-1c-0.72 0.74-0.72 0.74-1.44 1.5-1.57 1.5-1.57 1.5-3.56 1.5v-3c-0.09 0.76-0.17 1.52-0.26 2.31-0.74 2.69-0.74 2.69-2.62 4.5-2.12 1.19-2.12 1.19-5.12 1.19-1.69 1.64-3.36 3.31-5 5h-2v2c-1.99 0.66-3.97 1.32-6 2v-3c-0.66 1.65-1.33 3.3-2 5l-5-1 3 3c-1.06 0.39-2.11 0.78-3.19 1.19-3.75 1.58-5.98 3.9-8.81 6.81-2.32 0.81-2.32 0.81-4 1-0.34-0.66-0.66-1.32-1-2-0.34 1.32-0.66 2.64-1 4-1.33 0.33-2.64 0.66-4 1v2c-0.57 0.18-1.14 0.36-1.72 0.55-0.73 0.25-1.47 0.5-2.22 0.76-1.1 0.37-1.1 0.37-2.22 0.74-2.2 0.86-2.2 0.86-2.84 3.95-1.94 0.75-1.94 0.75-4 1-0.66-0.33-1.33-0.66-2-1-1.33 1.65-2.64 3.3-4 5-1.33-0.33-2.64-0.66-4-1 0.65 0.99 1.32 1.98 2 3-4.88 1-4.88 1-6 1-0.58 0.47-1.16 0.95-1.76 1.43-2.46 1.72-4.3 2.16-7.24 2.57 1.32 0.33 2.63 0.66 4 1-2.91 1.25-4.8 2-8 2-0.66 0.99-1.33 1.98-2 3-3.77 2.69-7.54 3.86-12 5v-3c-0.31 0.78-0.62 1.56-0.94 2.37-1.06 2.63-1.06 2.63-2.06 4.63-2.31 0.64-4.62 1.02-6.97 1.43-0.67 0.19-1.34 0.38-2.03 0.57-0.34 0.66-0.66 1.32-1 2v-5c-0.25 0.8-0.5 1.61-0.76 2.43-1.24 2.57-1.24 2.57-3.37 3.38-0.93 0.09-0.93 0.09-1.87 0.19h5c-3.76 2-3.76 2-6 2-1 0.66-1.99 1.32-3 2h-2v2h-3c-0.34-0.33-0.66-0.66-1-1v2c0.65 0.33 1.32 0.66 2 1-4.88 1-4.88 1-6 1-0.6 0.68-1.2 1.36-1.82 2.06-0.72 0.64-1.44 1.28-2.18 1.94-2.26-0.25-2.26-0.25-4-1 0.33 0.99 0.65 1.98 1 3-1.1 0.29-2.19 0.57-3.32 0.87-3.73 0.95-3.73 0.95-6.68 3.13-2.69-0.38-2.69-0.38-5-1l3 3c-2.31 0.66-4.63 1.32-7 2-0.34-0.33-0.66-0.66-1-1-0.66 1.32-1.33 2.64-2 4-1.99-0.33-3.97-0.66-6-1l3 3-8 3c-0.34-0.66-0.66-1.32-1-2v3h-7c1.64 0.33 3.29 0.66 5 1-2.23 2.22-3.6 2.65-6.57 3.56-2.98 0.77-2.98 0.77-5.43 2.44-2 0.04-4.01 0.04-6 0 1.64 0.33 3.29 0.66 5 1-2.68 2.68-5.4 2.97-9 4-0.66 0.66-1.33 1.32-2 2v-4c-0.34 1.32-0.66 2.64-1 4h-6c1.64 0.33 3.29 0.66 5 1-2.65 1.76-4.41 2.54-7.38 3.43-3.55 1.14-6.5 2.51-9.62 4.57h-1c-1 0.66-1.99 1.32-3 2h-2c-0.34 0.99-0.66 1.98-1 3-1-0.33-1.99-0.66-3-1v3c-1.33-0.33-2.64-0.66-4-1v2c-0.9 0.15-0.9 0.15-1.82 0.31-2.48 0.78-3.46 1.8-5.18 3.69h-1c-0.66 0.66-1.33 1.32-2 2h-3c-0.34-0.33-0.66-0.66-1-1v2c-1 0.33-1.99 0.66-3 1-0.34 0.66-0.66 1.32-1 2h-3v2c-0.81 0.14-1.61 0.29-2.44 0.43-2.49 0.31-2.49 0.31-3.56 1.57-1 0.33-1.99 0.66-3 1-0.81 0.96-0.81 0.96-1.63 1.93-3.4 2.96-7.01 3.36-11.37 4.07v2c-1.99-0.33-3.97-0.66-6-1l3 3c-5.76 1.12-5.76 1.12-8 0-0.25 0.64-0.5 1.28-0.76 1.93-1.24 2.07-1.24 2.07-3.37 2.82-0.93 0.12-0.93 0.12-1.87 0.25 0.65 0.33 1.32 0.66 2 1-0.06 37.04-0.14 74.07-0.23 111.11-0.02 4.37-0.03 8.74-0.04 13.11v2.63c-0.04 14.1-0.06 28.2-0.09 42.3-0.02 14.46-0.05 28.91-0.09 43.37-0.03 8.93-0.05 17.86-0.05 26.78-0.01 6.12-0.03 12.23-0.05 18.35-0.01 3.53-0.02 7.06-0.02 10.59 0 3.83-0.01 7.65-0.04 11.47 0.01 1.69 0.01 1.69 0.02 3.41-0.01 1.02-0.02 2.04-0.03 3.09 0 0.88 0 1.76-0.01 2.67-0.12 0.7-0.25 1.4-0.37 2.12-6.6 4.39-6.6 4.39-11.5 3.87-0.76-0.06-1.51-0.13-2.29-0.19-2.21-0.68-2.21-0.68-4.13-2.64-2.6-2.55-4.48-2.86-8.02-3.54-4.83-1.07-7.24-2.38-11.06-5.5-1.64-0.37-3.29-0.68-4.94-0.94-3.89-0.63-4.97-0.98-8.13-3.63-3.52-2.92-5.48-2.94-9.89-3.19-2.71-0.32-4.1-1.37-6.04-3.24-3.92-2.61-7.72-3.11-12.29-4.03-2.71-0.97-2.71-0.97-3.68-3-0.34-0.65-0.68-1.3-1.03-1.97-3-0.85-3-0.85-6.44-1.13-6.28-0.69-6.28-0.69-9.56-2.87v-2c-0.91-0.2-1.81-0.39-2.74-0.59-1.77-0.39-1.77-0.39-3.58-0.79-1.17-0.25-2.34-0.51-3.55-0.77-3.13-0.85-3.13-0.85-6.13-2.85v-2l-4-2c-0.33 0.33-0.67 0.66-1 1-4.14-0.43-7.98-0.91-10.88-4-3.11-2.93-6.42-2.96-10.57-3.51-2.55-0.49-2.55-0.49-5.55-2.49v-2l-5-1v-2c-0.89 0.2-1.78 0.41-2.69 0.62-3.54 0.4-5.18-0.06-8.31-1.62v-3c-0.82-0.11-1.64-0.22-2.49-0.33-1.08-0.16-2.15-0.32-3.27-0.48-1.06-0.16-2.13-0.31-3.23-0.46-3.1-0.75-4.7-1.58-7.01-3.73-0.33-0.66-0.67-1.32-1-2-2.81-0.69-2.81-0.69-6.07-1.13-1.1-0.17-2.21-0.33-3.35-0.51-0.85-0.12-1.7-0.24-2.58-0.36v-2h-3c-0.33-0.66-0.67-1.32-1-2-1-0.66-1.99-1.32-3-2-0.33 0.33-0.67 0.66-1 1-4.14-0.43-7.98-0.91-10.88-4-3.11-2.93-6.43-3.01-10.57-3.61-2.55-0.39-2.55-0.39-5.55-1.39-0.33-0.99-0.67-1.98-1-3-3.25-1.39-6.19-2.03-9.69-2.5-3.31-0.5-3.31-0.5-6.31-2.5-1.19-2.13-1.19-2.13-2-4-0.57 0.19-1.13 0.38-1.71 0.58-2.77 0.5-4.33 0.06-6.98-0.83-0.79-0.26-1.58-0.51-2.39-0.77-1.92-0.98-1.92-0.98-2.92-3.98-2.97-0.93-2.97-0.93-6.44-1.5-3.56-0.66-3.56-0.66-6.56-1.5-2.18-3.27-2.26-4.18-2.26-7.95-0.01-1.03-0.02-2.06-0.02-3.12 0-1.69 0-1.69 0.01-3.43-0.01-1.2-0.01-2.4-0.02-3.64-0.01-3.33-0.01-6.67-0.01-10.01 0-3.59-0.01-7.19-0.02-10.79-0.01-7.05-0.02-14.1-0.02-21.15 0-5.73 0-11.45-0.01-17.18-0.02-16.23-0.03-32.47-0.03-48.7v-2.65-2.66c0.01-14.21-0.01-28.42-0.04-42.63-0.03-14.58-0.04-29.16-0.04-43.74 0-8.19-0.01-16.38-0.03-24.57-0.02-6.98-0.02-13.95-0.01-20.92 0.01-3.56 0.01-7.12-0.01-10.68-0.02-3.85 0-7.71 0.01-11.56-0.01-1.13-0.02-2.26-0.03-3.43 0.01-1.03 0.02-2.06 0.03-3.12v-2.69c0.89-4.25 4.03-6.05 7.43-8.45 1.01-0.63 2.02-1.27 3.07-1.93 0.84-0.54 1.69-1.07 2.56-1.63 2.43-1.37 2.43-1.37 4.94-2.31 2.66-1 2.66-1 5.12-3.19 2.38-1.87 2.38-1.87 5.38-1.87 0.32-0.99 0.66-1.98 1-3v2c2.53-1.36 2.53-1.36 5-3v-2c2.31-0.33 4.62-0.66 7-1 0.32-0.99 0.66-1.98 1-3v2c0.99-0.33 1.98-0.66 3-1 0.73-2.02 0.73-2.02 1-4 2.01-0.46 4.03-0.91 6.05-1.37 2.15-0.54 2.15-0.54 3.95-2.63 2.53-2.54 5.78-3.21 9.18-3.94 1.26-0.35 2.52-0.7 3.82-1.06 0.32-0.99 0.66-1.98 1-3 2.43-1.07 2.43-1.07 5.43-2 4.59-1.34 4.59-1.34 7.57-5 2.71-1.14 5.46-1.97 8.27-2.84 2.82-1 2.82-1 4.76-3.23 2.92-2.87 5.78-2.78 9.72-3.24 2.42-0.47 2.42-0.47 3.39-2.72 0.28-0.65 0.56-1.3 0.86-1.97 2.56-0.63 2.56-0.63 5-1 0.32-0.66 0.66-1.32 1-2h3c0.32-1.32 0.66-2.64 1-4 2.63-0.33 5.27-0.66 8-1 0.32-0.99 0.66-1.98 1-3v2h3v-2c-0.67-0.66-1.32-1.32-2-2 0.77-0.2 1.54-0.39 2.33-0.59 1.51-0.39 1.51-0.39 3.04-0.79 1.5-0.38 1.5-0.38 3.02-0.77 2.73-0.68 2.73-0.68 4.61-2.85 1.64-1.65 3.79-2.21 5.93-3.07 0.9-0.36 1.79-0.72 2.72-1.09 2.35-0.84 2.35-0.84 4.35-0.84v-3c0.84-0.26 1.68-0.51 2.55-0.77 1.1-0.35 2.19-0.69 3.32-1.04 1.09-0.34 2.18-0.68 3.3-1.02 3.1-0.98 3.1-0.98 4.83-4.17 2.24-0.81 2.24-0.81 4.87-1.44 4.27-1.16 6.05-2.39 9.13-5.56 1.48-0.56 2.98-1.05 4.5-1.5 3.83-1.15 5.83-2.43 8.5-5.5 0.99-0.33 1.98-0.66 3-1 0.66-0.66 1.31-1.32 2-2v2c3.62-1.87 3.62-1.87 6-5-1-0.33-1.99-0.66-3-1 1.27-0.13 2.55-0.25 3.87-0.38 3.47-0.31 3.47-0.31 6.13-2.62v2c2.53-1.36 2.53-1.36 5-3v-2c1.67-0.44 1.67-0.44 3.37-0.88 3.63-0.81 3.63-0.81 5.63-3.12v2c0.64-0.68 0.64-0.68 1.31-1.38 3.53-3.39 7.04-4.4 11.69-5.62 0.33-1.32 0.65-2.64 1-4 1.15-0.28 1.15-0.28 2.33-0.55 1-0.25 2.01-0.51 3.04-0.76 1-0.25 2-0.49 3.02-0.74 2.91-0.77 2.91-0.77 4.61-3.95 2.53-1.17 2.53-1.17 5.5-2.19 0.97-0.34 1.95-0.69 2.96-1.04 2.54-0.77 2.54-0.77 4.54-0.77 0.33-0.99 0.65-1.98 1-3 2.29-1.03 2.29-1.03 5.18-1.94 4.49-1.52 7.93-3.33 11.82-6.06 1.21-0.55 2.44-1.07 3.68-1.57 3.22-1.13 3.22-1.13 4.71-2.93 2.06-1.93 3.81-2.28 6.54-2.94 4.23-1.16 6.01-2.41 9.07-5.56 2.24-0.86 4.51-1.53 6.81-2.21 2.88-1.05 4.87-2.82 7.19-4.79h3c0.33-0.99 0.65-1.98 1-3v2c2.53-1.36 2.53-1.36 5-3v-2c2.3-0.33 4.62-0.66 7-1 0.33-0.99 0.65-1.98 1-3v2c2.53-1.36 2.53-1.36 5-3v-2c2.63-0.33 5.27-0.66 8-1 0.33-0.99 0.65-1.98 1-3v2c3.07-0.76 3.07-0.76 4.87-3 2.44-2.3 3.9-2.48 7.13-3 0.33-0.66 0.65-1.32 1-2h3v-3c0.71-0.12 1.42-0.24 2.15-0.37 0.92-0.17 1.84-0.33 2.78-0.51 0.92-0.16 1.84-0.32 2.78-0.49 0.75-0.21 1.51-0.42 2.29-0.63 0.33-0.66 0.65-1.32 1-2 0.65 0.33 1.32 0.66 2 1-0.34-0.99-0.66-1.98-1-3 1.15-0.26 1.15-0.26 2.33-0.52 1-0.24 2.01-0.48 3.04-0.73 1-0.23 2-0.47 3.02-0.71 2.74-0.79 2.74-0.79 3.83-3.11 0.25-0.64 0.51-1.28 0.78-1.93 2.06-0.63 2.06-0.63 4-1 0.33-0.66 0.65-1.32 1-2 2.06-0.63 2.06-0.63 4-1v-3c1.11-0.42 2.22-0.83 3.37-1.25 3.29-1.39 4.23-2.43 5.63-5.75 0.63-0.27 1.26-0.53 1.91-0.81 2.83-1.62 3.17-3.21 4.21-6.26 1.68-4.84 1.68-4.84 3.88-5.93 3.14-9.42 3.87-24.56-0.44-33.75-1.37-2.35-1.37-2.35-3.56-3.25-0.27-0.93-0.54-1.86-0.82-2.81-1.4-3.77-3.02-4.82-6.18-7.19-0.34-0.7-0.66-1.41-1-2.13-1.42-2.65-3.22-2.99-6-3.87 0.65-0.33 1.32-0.66 2-1-0.51-0.26-1.02-0.51-1.54-0.77-1.43-0.72-2.86-1.43-4.29-2.15-1.85-0.92-3.73-1.79-5.61-2.65-2.56-1.43-2.56-1.43-3.56-4.43-3.63-0.66-7.26-1.32-11-2v-2c-0.87-0.19-0.87-0.19-1.76-0.38-2.24-0.62-2.24-0.62-3.89-1.6-3.34-1.45-6.76-1.67-10.35-2.02-4.42-0.43-8.02-1-12-3-12.07-4.05-24.75-3.43-37.31-3.34-3.62 0.02-7.24 0.02-10.86 0.02-14.58 0.01-28.73 0.29-42.83 4.32v1c-4.94 0.94-9.81 1.3-14.82 1.56-0.77 0.04-1.55 0.09-2.35 0.13-5.56 0.31-5.56 0.31-6.83 0.31-4.49 1.82-4.49 1.82-8.78 4.04-3.11 1.34-6.11 1.54-9.48 1.89-7.02 0.83-12.77 2.09-18.74 6.07-2.94 0.6-6.01 1-9 1-2.63 0.92-4.7 1.75-6.85 3.53-2.58 1.76-4.25 1.92-7.34 2.09-3.21-0.05-3.21-0.05-5.81 1.38-1.67 0.67-3.34 1.34-5 2-0.67 0.33-1.32 0.66-2 1-4.59 2.29-7.84 3.11-13 3-0.33 0.33-0.67 0.66-1 1-2.23 1.87-4.45 3.6-7 5-2.63-0.38-2.63-0.38-5-1-2.68 1.37-2.68 1.37-5 3h-2v2h-2c0.32-1.32 0.66-2.64 1-4h-1c-0.33 1.98-0.67 3.96-1 6-0.69 0.11-1.38 0.22-2.09 0.33-0.9 0.16-1.8 0.32-2.73 0.48-0.89 0.15-1.78 0.3-2.7 0.46-2.73 0.8-3.62 1.66-5.48 3.73-5.08 2.58-9.35 3.5-15 4-0.33 0.99-0.67 1.98-1 3l-5-2c0.66 0.99 1.31 1.98 2 3-3.76 1.12-3.76 1.12-6 0v2c-2.91 2.04-4.41 3-8 3 0.32 0.66 0.66 1.32 1 2-3.88 1-3.88 1-5 1-4.06 1.76-4.06 1.76-7.42 4.54-1.99 1.83-3.44 2.07-6.08 2.52-3.29 0.57-4.63 1.02-7.5 2.94-0.33-0.99-0.67-1.98-1-3v3h-6c1.64 0.33 3.3 0.66 5 1-0.33 0.66-0.67 1.32-1 2-1.9 0.52-1.9 0.52-4.26 0.93-4.85 0.99-8.21 2.53-11.74 6.07-0.33-0.33-0.67-0.66-1-1-0.75 0.84-1.49 1.69-2.26 2.56-0.9 0.8-1.81 1.61-2.74 2.44-2.32-0.19-2.32-0.19-4-1 0.32 0.99 0.66 1.98 1 3-3.88 1-3.88 1-5 1-3.14 1.29-3.14 1.29-5 4h-3v2c-3.88 1-3.88 1-5 1-3.08 0.69-3.08 0.69-4.34 2.95-2.2 2.7-4 3.01-7.35 3.8-1 0.24-1.99 0.48-3.01 0.73-1.14 0.26-1.14 0.26-2.3 0.52v2c-1.29 0.67-2.59 1.33-3.88 2-0.72 0.37-1.44 0.74-2.18 1.12-1.95 0.88-1.95 0.88-3.94 0.88v-3c-0.33 1.65-0.67 3.3-1 5-0.97-0.02-1.94-0.04-2.94-0.07-2.94-0.29-2.94-0.29-4.06 1.07 1.31 0.33 2.63 0.66 4 1-1.57 0.65-3.13 1.29-4.69 1.93-0.87 0.36-1.74 0.72-2.64 1.09-2.56 0.93-5 1.52-7.67 1.98l3 2c-1.48 0.33-2.96 0.67-4.44 1-0.83 0.18-1.65 0.37-2.5 0.56-2.07 0.44-2.07 0.44-3.06 0.44-0.33 0.66-0.67 1.32-1 2-2.07 0.62-2.07 0.62-4 1 1.31 0.33 2.63 0.66 4 1l-4.38 1.5c-0.81 0.28-1.62 0.55-2.46 0.84-2.16 0.66-2.16 0.66-4.16 0.66-0.34 0.99-0.66 1.98-1 3h-2c-0.34 0.66-0.66 1.32-1 2-16.3 0.89-16.3 0.89-22.22-3.78-2.1-1.44-3.72-1.75-6.22-2.16-4.74-0.83-7.96-3.02-11.82-5.82-1.52-1.34-1.52-1.34-2.74-1.24-3.9-0.28-6.22-1.01-9.19-3.44-3.84-3-7.6-3.46-12.36-4.01-2.45-0.55-2.45-0.55-3.88-1.98-2.34-2.34-4.91-2.72-8.07-3.57-6.9-1.87-6.9-1.87-9.5-5-2.75-1.84-4.5-2.05-7.88-2.38-4.26-0.44-6.58-2.21-10.12-4.62-3.29-1.18-6.63-2.12-10-3v-2c-5.31-1.67-10.48-3.28-16-4v-2c-0.58-0.13-1.16-0.25-1.76-0.38-2.24-0.62-2.24-0.62-4.1-1.61-2.9-1.37-5.78-1.75-8.93-2.25-2.21-0.76-2.21-0.76-4.12-2.73-2.62-2.54-4.61-2.93-8.16-3.66-3.67-0.77-5.78-1.27-8.93-3.37v-2h-3l-1-1c-2-0.23-4-0.45-6-0.62-2-0.38-2-0.38-5-2.38v-2c-4.63-0.99-9.25-1.98-14-3v-2c-0.79-0.31-1.57-0.62-2.38-0.94-4.31-1.74-4.31-1.74-5.62-3.06l-2 1c-2.35-0.61-4.69-1.27-7-2v-2c-2.81-0.96-5.6-1.89-8.45-2.66-7.04-1.93-7.04-1.93-10.18-4.47-3.39-2.67-6.11-2.58-10.37-2.87-0.34-0.99-0.66-1.98-1-3h-4c-2.51-0.89-3.71-1.58-5.26-3.75-0.94-2.83-0.88-5.29-0.74-8.25 1.67-0.44 1.67-0.44 3.37-0.88 3.63-0.81 3.63-0.81 5.63-3.12 1.64-1.65 3.79-2.21 5.93-3.07 0.9-0.36 1.79-0.72 2.72-1.09 2.35-0.84 2.35-0.84 4.35-0.84 0.32-0.99 0.65-1.98 1-3 2.69-1.17 5.43-1.98 8.23-2.84 3.04-1.28 4.58-2.75 6.77-5.16 3.07-1.99 5.36-2.2 9-2 0.32-1.65 0.65-3.3 1-5 1.13-0.13 2.26-0.25 3.43-0.38 1.18-0.2 2.35-0.41 3.57-0.62 0.32-0.66 0.65-1.32 1-2h3v-3c0.71-0.12 1.42-0.24 2.15-0.37 1.38-0.25 1.38-0.25 2.78-0.51 1.38-0.24 1.38-0.24 2.78-0.49 1.13-0.31 1.13-0.31 2.29-0.63 0.32-0.66 0.65-1.32 1-2 1-2 1-2 2.99-2.85 0.81-0.26 1.61-0.51 2.44-0.78 0.81-0.26 1.61-0.52 2.44-0.79 2.13-0.58 2.13-0.58 4.13-0.58 0.32-0.93 0.32-0.93 0.66-1.87 1.82-2.91 3.53-3.2 6.77-4.2 3.9-1.1 3.9-1.1 7.06-3.46 2.7-2.64 6.51-2.84 10.11-3.63 1.18-0.42 1.18-0.42 2.4-0.84 0.32-0.99 0.65-1.98 1-3 1.99-0.95 1.99-0.95 4.43-1.69 1.21-0.38 1.21-0.38 2.44-0.76 2.13-0.55 2.13-0.55 4.13-0.55 0.22-0.64 0.45-1.28 0.68-1.94 1.32-2.06 1.32-2.06 3.94-2.81 0.78-0.09 1.57-0.17 2.38-0.25 0.33-0.99 0.65-1.98 1-3v2c2.49-0.78 2.49-0.78 5-2 0.33-0.99 0.65-1.98 1-3 0.96-0.13 1.93-0.25 2.93-0.38 1.01-0.2 2.02-0.41 3.07-0.62 0.33-0.66 0.65-1.32 1-2 1.2-0.22 1.2-0.22 2.43-0.44 2.91-0.33 2.91-0.33 4.57-3.56 1.99-0.37 3.99-0.7 6-1 0.33-0.66 0.65-1.32 1-2 0.99-0.22 0.99-0.22 2-0.44 0.65-0.19 1.31-0.37 2-0.56 0.33-0.99 0.65-1.98 1-3 1.96-0.73 1.96-0.73 4.37-1.19 0.79-0.16 1.58-0.32 2.4-0.48 2.23-0.33 2.23-0.33 5.23-0.33v-4c0.63-0.12 1.27-0.24 1.93-0.37 0.82-0.17 1.65-0.33 2.5-0.51 0.83-0.16 1.65-0.32 2.5-0.49 1.02-0.31 1.02-0.31 2.07-0.63 0.33-0.66 0.65-1.32 1-2v2c0.57-0.62 1.15-1.24 1.74-1.88 3.55-3.34 5.33-4.12 10.26-4.12 0.33-0.66 0.65-1.32 1-2 0.59-0.15 1.19-0.29 1.81-0.44 2.61-0.67 4.07-1.92 6.19-3.56 0.99-0.33 1.98-0.66 3-1 0.65-0.66 1.31-1.32 2-2v2c2.49-0.78 2.49-0.78 5-2 0.33-0.99 0.65-1.98 1-3 3.59-0.97 7.2-1.54 10.87-2.16 1.03-0.28 2.06-0.56 3.13-0.84 0.33-0.99 0.65-1.98 1-3 2.61-1.07 2.61-1.07 5.87-2 4.05-1.17 6.2-2.07 9.13-5 2.44-0.66 2.44-0.66 5.12-1.07 2.62-0.35 2.62-0.35 4.88-0.93 0.33-0.66 0.65-1.32 1-2 1.31 0.33 2.63 0.66 4 1 0.32-1.32 0.66-2.64 1-4 0.99-0.18 1.99-0.37 3.02-0.55 1.29-0.25 2.58-0.51 3.91-0.76 1.29-0.25 2.58-0.49 3.9-0.74 1.05-0.32 2.09-0.63 3.17-0.95 0.32-0.99 0.66-1.98 1-3 4.31-1.35 7.47-2 12-2 0.32-0.66 0.66-1.32 1-2h4c0.41-0.46 0.82-0.91 1.24-1.38 3.66-3.39 8.97-3.62 13.76-3.62 0.32-0.66 0.66-1.32 1-2v2c3.62-1.87 3.62-1.87 6-5 2.22-0.61 4.48-1.12 6.74-1.57 1.24-0.24 2.47-0.49 3.74-0.75 2.13-0.41 4.26-0.8 6.41-1.15 0.69-0.17 1.39-0.35 2.11-0.53 0.32-0.66 0.66-1.32 1-2 6.7-2.65 13.87-2.63 21-3v-3c2.03-0.51 4.08-1.01 6.12-1.5 1.14-0.28 2.27-0.56 3.45-0.85 3.24-0.62 6.13-0.77 9.43-0.65 0.32-0.66 0.66-1.32 1-2 1.66-0.34 3.33-0.67 5-1 0.32-0.66 0.66-1.32 1-2 1.93-0.38 1.93-0.38 4.43-0.57 1.34-0.11 1.34-0.11 2.71-0.22 1.9-0.14 3.81-0.28 5.71-0.42 1.34-0.12 1.34-0.12 2.71-0.23 0.82-0.06 1.65-0.12 2.5-0.18 0.64-0.13 1.28-0.25 1.94-0.38 0.32-0.66 0.66-1.32 1-2h4c0.41-0.48 0.82-0.95 1.24-1.44 4.6-4.1 13.92-2.67 19.76-2.56 0.32-0.66 0.66-1.32 1-2v2c1.31-0.26 2.62-0.53 3.93-0.81 0.73-0.16 1.46-0.31 2.22-0.46 0.61-0.24 1.22-0.48 1.85-0.73 0.32-0.99 0.66-1.98 1-3 7.73-1.36 15.14-2.32 23-2 0.32-0.66 0.66-1.32 1-2v2c1.48-0.12 2.95-0.24 4.43-0.38 0.83-0.07 1.65-0.14 2.5-0.21 0.68-0.14 1.36-0.27 2.07-0.41 0.32-0.66 0.66-1.32 1-2 9.04-3.95 19.31-3.69 29-4 0.32-0.66 0.66-1.32 1-2v2c2.81-0.48 5.62-0.96 8.43-1.44 0.8-0.13 1.61-0.27 2.43-0.41 3.89-0.36 3.89-0.36 7.14-2.15 16.19-2.71 32.64-2.21 49-2 0.33-0.66 0.65-1.32 1-2v2c0.83-0.23 0.83-0.23 1.69-0.47 18.77-4.36 39.86-2.61 58.93-2.22zm-26.62 169.69v1h17v-1h-17zm18 0v1h24v-1h-24zm-49 2v1h9v-1h-9zm-15 4 4 1zm-21 3c0.33 0.66 0.65 1.32 1 2 0.33-0.66 0.65-1.32 1-2h-2zm-15 3c0.33 0.66 0.65 1.32 1 2 0.65-0.66 1.32-1.32 2-2h-3zm-5 2 4 2v-2h-4zm515 0 1 2zm-519 1c-0.34 0.66-0.66 1.32-1 2 0.99-0.33 1.98-0.66 3-1-0.66-0.33-1.33-0.66-2-1zm-10 4 1 2zm-11 3v3c0.66-0.99 1.31-1.98 2-3h-2zm-4 2c-0.33 0.66-0.67 1.32-1 2h2c-0.33-0.66-0.67-1.32-1-2zm-5 1c0.32 0.66 0.66 1.32 1 2 0.66-0.33 1.31-0.66 2-1-1-0.33-1.99-0.66-3-1zm-11 4c0.32 0.66 0.66 1.32 1 2 0.32-0.66 0.66-1.32 1-2h-2zm-21 8v3c0.99-0.33 1.98-0.66 3-1h-2c-0.33-0.66-0.67-1.32-1-2zm589 4 1 2zm0 3v5h1v-5h-1zm-610 1c-1 1.48-1 1.48-2 3 1.31-0.66 2.63-1.32 4-2-0.67-0.33-1.32-0.66-2-1zm610 5 1 4zm0 5v8h1v-8h-1zm-660 12c-0.67 0.66-1.32 1.32-2 2 0.32 0.99 0.66 1.98 1 3 0.99-1.65 1.98-3.3 3-5h-2zm-11 5v1h5v-1h-5zm666 4v3c0.66-0.33 1.31-0.66 2-1-0.67-0.66-1.32-1.32-2-2zm-2 3 1 2zm-1 3v11h1v-11h-1zm0 12 1 4zm-721 10c0.32 0.99 0.66 1.98 1 3 0.99-0.33 1.98-0.66 3-1l-4-2zm-5 2c0.32 0.99 0.66 1.98 1 3v-3h-1zm-27 15 1 2zm-20 12c0.66 0.66 1.31 1.32 2 2v-2h-2zm-14.19 5.93c-0.6 0.36-1.2 0.71-1.81 1.07 3.46-0.5 3.46-0.5 7-1-2.9-1.34-2.9-1.34-5.19-0.07zm755.19 12.07c-1 1.48-1 1.48-2 3 0.99-0.33 1.98-0.66 3-1l-1-2zm-12 17c0.32 0.66 0.65 1.32 1 2 0.32-0.66 0.65-1.32 1-2h-2zm-2 2c-0.66 1.32-1.33 2.64-2 4 1.32-1.32 2.63-2.64 4-4h-2zm-13 14c-1 1.48-1 1.48-2 3 0.99-0.33 1.98-0.66 3-1l-1-2zm-422 5c-0.34 0.66-0.66 1.32-1 2h2c-0.34-0.66-0.66-1.32-1-2zm416 1c-1.49 1.98-1.49 1.98-3 4 1.32-0.66 2.63-1.32 4-2l-1-2zm-8 7v3c0.65-0.99 1.32-1.98 2-3h-2zm-4 4c0.32 0.66 0.65 1.32 1 2 0.32-0.66 0.65-1.32 1-2h-2zm-9 9 1 2zm-7 5-1 4c0.99-0.33 1.98-0.66 3-1v-3h-2zm-6 8c0.32 0.66 0.65 1.32 1 2 0.32-0.66 0.65-1.32 1-2h-2zm-20 14v2c-1 0.49-1 0.49-2 1h3c0.32-0.99 0.65-1.98 1-3h-2zm-18 14c0.65 0.66 1.32 1.32 2 2v-2h-2zm-2 3c0.65 0.66 1.32 1.32 2 2v-2h-2zm-6 3c-1 1.48-1 1.48-2 3 0.99-0.33 1.98-0.66 3-1-0.34-0.66-0.66-1.32-1-2zm-48 31c0.33 1.32 0.65 2.64 1 4-1.33 0.33-2.64 0.66-4 1h5v-5h-2zm-20 13c0.65 0.66 1.32 1.32 2 2v-2h-2zm-4 3v2c0.65-0.33 1.32-0.66 2-1-0.66-0.33-1.33-0.66-2-1zm-127 68c0.33 0.66 0.65 1.32 1 2 0.33-0.66 0.65-1.32 1-2h-2zm-2 2 1 2zm-68 36v3c0.65-0.33 1.32-0.66 2-1-0.66-0.66-1.33-1.32-2-2zm-13 7v3c0.99-0.33 1.98-0.66 3-1h-2c-0.34-0.66-0.66-1.32-1-2zm-26 19 1 2zm0 281 1 2z" fill="#4CAAE3"/>
<path transform="translate(442,557)" d="m0 0 1 3c0.99 0.33 1.98 0.66 3 1 0.23 0.78 0.47 1.56 0.71 2.37 1.63 3.31 3.41 3.83 6.81 5.01 1.07 0.34 1.07 0.34 2.17 0.68 4.23 1.4 8.22 2.77 12.07 5.04 2.59 1.52 4.58 2.49 7.43 3.28 3.86 1.19 7.29 2.82 10.87 4.68 3.49 1.81 6.66 3.29 10.5 4.13 3.44 0.81 3.44 0.81 4.83 2.27 2.14 2.05 3.99 2.33 6.86 2.98 4.07 1.02 7.23 2.25 10.8 4.52 3.52 1.87 7.37 2.87 11.18 4.01 2.77 1.03 2.77 1.03 4.79 2.56 2.43 1.8 4.54 2.29 7.48 2.97 3.96 0.91 6.32 2.02 9.5 4.5 2.07 0.84 2.07 0.84 4.25 1.44 3.07 0.95 5.8 2.03 8.63 3.56 4.04 2.13 8.17 3.17 12.6 4.19 2.72 0.87 4.26 2.11 6.52 3.81 1.89 0.71 3.81 1.35 5.75 1.94 4.36 1.38 8.28 2.97 12.31 5.12 2.85 1.38 5.82 2.25 8.86 3.13 2.08 0.81 2.08 0.81 4.01 2.31 2.44 1.77 4.46 2.27 7.38 2.94 4.02 1.02 7.22 2.25 10.77 4.46 7.45 4.28 15.76 6.79 24.01 9.01 3.24 1.21 5.23 2.94 7.91 5.09 2.53 0.92 2.53 0.92 5.19 1.44 4.86 1.2 8.91 2.96 13.32 5.29 5.25 2.68 10.74 4.96 16.49 6.27 0.95 6.42 1.15 12.68 1.16 19.17 0.01 1.1 0.02 2.21 0.02 3.34 0.02 3.7 0.03 7.39 0.04 11.08 0.01 2.65 0.02 5.3 0.04 7.95 0.02 6.44 0.05 12.88 0.07 19.32 0.02 5.23 0.04 10.46 0.06 15.7v2.26c0.01 1.51 0.02 3.02 0.02 4.54 0.06 14.18 0.11 28.36 0.16 42.54 0.04 12.18 0.08 24.36 0.13 36.53 0.06 14.15 0.12 28.29 0.17 42.43 0 1.51 0.01 3.01 0.01 4.52 0 0.74 0.01 1.48 0.01 2.25l0.06 15.69c0.03 6.37 0.05 12.74 0.07 19.1 0.01 3.25 0.02 6.5 0.04 9.75 0.01 3.52 0.02 7.04 0.03 10.55 0.01 1.56 0.01 1.56 0.02 3.15v2.83c0 0.81 0.01 1.62 0.01 2.46-0.12 1.84-0.12 1.84-1.12 2.84-0.1 2.29-0.13 4.58-0.12 6.88-0.01 1.88-0.01 1.88-0.01 3.8 0.15 3.81 0.41 5.6 3.13 8.32-1.6 0.2-3.21 0.38-4.81 0.56-0.9 0.11-1.79 0.21-2.71 0.32-2.48 0.12-2.48 0.12-5.48-0.88-0.6-0.65-1.2-1.3-1.82-1.97-2.67-2.49-4.56-2.85-8.12-3.53-4.82-1.07-7.24-2.38-11.06-5.5-1.63-0.37-3.28-0.68-4.94-0.94-3.88-0.63-4.97-0.98-8.12-3.62-3.53-2.93-5.48-2.94-9.89-3.2-2.72-0.32-4.1-1.37-6.05-3.24-3.91-2.61-7.72-3.1-12.29-4.02-2.71-0.98-2.71-0.98-3.68-3.01-0.34-0.65-0.68-1.3-1.03-1.97-3-0.85-3-0.85-6.44-1.12-6.28-0.69-6.28-0.69-9.56-2.88v-2c-0.9-0.19-1.81-0.39-2.74-0.59-1.18-0.26-2.36-0.52-3.57-0.79-1.17-0.25-2.35-0.51-3.55-0.77-3.14-0.85-3.14-0.85-6.14-2.85v-2l-4-2-1 1c-4.13-0.43-7.98-0.91-10.88-4-3.11-2.93-6.42-2.96-10.56-3.51-2.56-0.49-2.56-0.49-5.56-2.49v-2l-5-1v-2c-0.89 0.21-1.77 0.41-2.69 0.62-3.54 0.41-5.18-0.05-8.31-1.62v-3c-1.23-0.16-1.23-0.16-2.48-0.33-1.08-0.16-2.16-0.32-3.27-0.48-1.6-0.23-1.6-0.23-3.23-0.46-3.11-0.75-4.7-1.58-7.02-3.73l-1-2c-2.81-0.69-2.81-0.69-6.06-1.12-1.11-0.17-2.21-0.34-3.35-0.51-0.85-0.12-1.71-0.25-2.59-0.37v-2h-3l-1-2-3-2-1 1c-4.13-0.43-7.98-0.91-10.88-4-3.11-2.93-6.42-3-10.56-3.61-2.56-0.39-2.56-0.39-5.56-1.39-0.5-1.49-0.5-1.49-1-3-3.25-1.39-6.18-2.03-9.69-2.5-3.31-0.5-3.31-0.5-6.31-2.5-1.19-2.12-1.19-2.12-2-4-0.84 0.29-0.84 0.29-1.71 0.58-2.76 0.51-4.33 0.06-6.98-0.83-0.79-0.25-1.57-0.51-2.38-0.77-1.93-0.98-1.93-0.98-2.93-3.98-2.96-0.92-2.96-0.92-6.44-1.5-3.56-0.66-3.56-0.66-6.56-1.5-2.18-3.26-2.25-4.17-2.26-7.95 0-1.03-0.01-2.05-0.02-3.11 0.01-1.14 0.01-2.27 0.01-3.44 0-1.2-0.01-2.4-0.01-3.63-0.01-3.34-0.01-6.68-0.01-10.02 0-3.59-0.01-7.19-0.02-10.79-0.02-7.05-0.02-14.1-0.02-21.15-0.01-5.72-0.01-11.45-0.02-17.18-0.01-16.23-0.02-32.46-0.02-48.69v-2.66-2.65c0-14.21-0.02-28.42-0.05-42.63-0.03-14.59-0.04-29.17-0.04-43.75 0-8.19 0-16.38-0.02-24.57-0.02-6.97-0.03-13.95-0.01-20.92 0-3.56 0-7.12-0.01-10.68-0.02-3.85-0.01-7.7 0.01-11.56-0.01-1.13-0.03-2.26-0.04-3.42 0.01-1.03 0.02-2.06 0.03-3.12v-2.7c0.66-3.16 2.06-4.34 4.5-6.38 2.21-1.3 3.43-2 6-2z" fill="#3371C2"/>
<path transform="translate(786,1056)" d="m0 0c0.5 0.99 0.5 0.99 1 2 0.96-0.04 1.92-0.08 2.91-0.12 3.64-0.15 7.27-0.29 10.9-0.42 1.56-0.05 3.12-0.12 4.68-0.18 26.15-1.11 26.15-1.11 35.51 6.72 1.09 0.52 2.19 1.03 3.31 1.56 3.04 1.63 3.29 2.45 4.69 5.44 0.8 0.47 1.61 0.95 2.44 1.44 3.01 1.83 3.86 3.52 5.56 6.56 0.68 0.54 1.36 1.07 2.06 1.62 2.74 3.36 2.89 6.7 3.45 10.92 0.29 2.63 0.29 2.63 2.49 4.46 0.12 2.62 0.12 2.62 0 5h2c0.05 9.87 0.08 19.75 0.1 29.62 0.01 4.59 0.03 9.17 0.05 13.76 0.02 4.42 0.03 8.84 0.04 13.26 0 1.69 0.01 3.38 0.02 5.07 0.02 2.36 0.02 4.73 0.02 7.09 0 0.7 0.01 1.4 0.02 2.13-0.02 4.84-0.02 4.84-2.25 7.07-0.96 3.04-1.79 6.08-2.5 9.19-0.58 2.1-1.47 3.89-2.5 5.81l-2-1c-0.08 0.68-0.16 1.36-0.25 2.06-0.97 3.81-2.71 6.58-4.75 9.94l-2-3c-0.06 0.56-0.12 1.11-0.19 1.69-1.85 5.28-7.09 8.67-11.81 11.31-2.33 0.36-4.66 0.69-7 1-1.65 1.4-1.65 1.4-3 3-4.58 2.44-9.01 2.34-14.07 2.37-0.88 0.01-1.75 0.02-2.66 0.03-1.85 0.01-3.71 0.02-5.56 0.03-2.81 0.01-5.61 0.06-8.41 0.11-9.92 0.09-17.58-0.31-26.3-5.54-1.26-0.52-2.53-1.02-3.81-1.5-3.59-1.69-6.28-3.88-9.19-6.5l-3.69-3.06c-2.47-2.12-4.52-4.2-6.31-6.94 0.5-0.99 0.5-0.99 1-2h-2l-1-2-2-3v-4c-0.99-0.33-1.98-0.66-3-1l2-1c-0.28-0.53-0.57-1.05-0.86-1.6-3.91-8.26-3.67-16.26-3.57-25.17 0.01-1.61 0.01-3.22 0.01-4.83 0.01-3.36 0.03-6.71 0.06-10.07 0.04-4.29 0.06-8.59 0.07-12.88 0.01-4.12 0.03-8.23 0.05-12.34 0.01-0.78 0.01-1.56 0.01-2.37 0.01-2.21 0.03-4.42 0.05-6.63 0.01-1.26 0.02-2.51 0.03-3.8 0.13-2.9 0.48-5.5 1.15-8.31h2l-1-4c1.49-0.49 1.49-0.49 3-1 0.01-0.59 0.03-1.18 0.04-1.79 0.27-4.36 0.41-6.57 3.34-9.96 0.86-0.74 1.73-1.48 2.62-2.25 0.5-0.83 0.99-1.65 1.5-2.5 2.57-4.28 6.27-7.85 10.5-10.5 0.87-0.14 1.73-0.29 2.62-0.44 1.18-0.28 1.18-0.28 2.38-0.56 0.29-0.65 0.59-1.29 0.89-1.96 1.11-2.04 1.11-2.04 3.03-2.87 4.78-0.89 9.21-1.38 14.08-1.17v-2zm-6 44 1 2 1-2h-2zm4-1 1 2-5 4 1 3c0.07 1.99 0.08 3.98 0.05 5.97-0.02 1.84-0.02 1.84-0.04 3.72-0.01 0.66-0.02 1.31-0.03 1.99-0.02 2.05-0.04 4.11-0.06 6.16-0.04 5.85-0.09 11.69-0.17 17.53-0.05 3.58-0.07 7.16-0.09 10.73-0.01 1.36-0.03 2.73-0.05 4.09-0.04 1.9-0.04 3.81-0.05 5.71-0.01 1.09-0.02 2.17-0.03 3.29 0.58 3.48 1.7 4.67 4.47 6.81h2l1 3c5.13 1.71 10.51 1.27 15.88 1.31 1.18 0.03 2.36 0.06 3.58 0.09 1.15 0.01 2.29 0.02 3.47 0.03 1.04 0.01 2.09 0.02 3.16 0.04 3.64-0.59 5.22-2.02 7.91-4.47l3-2c1.22-3.19 1.13-6.38 1.15-9.76 0-1.16 0.01-2.32 0.01-3.51 0.01-1.25 0.01-2.5 0.01-3.78 0-1.29 0-2.58 0.01-3.9 0-2.73 0.01-5.45 0.01-8.17 0-3.48 0.01-6.96 0.03-10.43 0.01-3.34 0.01-6.67 0.01-10 0.01-1.24 0.01-2.48 0.02-3.76-0.01-5.95-0.18-11.09-2.25-16.69h-3c-0.5-1.48-0.5-1.48-1-3v2c-4.48 0.05-8.97 0.09-13.45 0.11-1.53 0.01-3.05 0.02-4.58 0.04-2.19 0.03-4.38 0.04-6.58 0.05-1.98 0.01-1.98 0.01-4 0.03-3.12-0.21-4.8-0.56-7.39-2.23zm80 4 1 2zm0 59 1 2zm-86 1 1 3zm86 4 1 2zm-4 14 1 3zm-7 15 1 2zm-9 10 1 3v-3h-1zm-18 10 1 2zm-38 2v1h7v-1h-7z" fill="#3573C3"/>
<path transform="translate(506,1056)" d="m0 0c0.5 0.99 0.5 0.99 1 2 2.98 0.43 2.98 0.43 6.44 0.56 6.37 0.35 6.37 0.35 8.56 1.44v2h4v2c0.91 0.23 1.82 0.45 2.75 0.69 3.75 1.51 4.86 3.13 7.25 6.31 0.68 0.33 1.36 0.66 2.06 1 2.73 1.41 3.59 3.3 4.94 6v2c0.63 0.24 1.27 0.48 1.92 0.73 2.08 1.27 2.08 1.27 2.91 3.29 0.21 1.17 0.21 1.17 0.42 2.36 0.15 0.77 0.3 1.54 0.45 2.33 0.3 2.29 0.3 2.29 0.3 6.29h2c3.44 7.59 4.55 14.77 1.62 22.75-0.53 1.07-1.07 2.14-1.62 3.25-0.69 2.33-1.36 4.66-2 7-0.66 2-1.32 4-2 6l-1-2c-0.5 1.98-0.5 1.98-1 4h-2c-0.25 0.93-0.5 1.86-0.75 2.81-1.33 3.4-2.08 4.51-5.25 6.19h-4l4 2c-0.74 0.23-1.49 0.45-2.25 0.69-2.92 1.11-2.92 1.11-4.5 3.81-2.88 3.2-5.09 3.42-9.23 4.04-2.24 0.32-2.24 0.32-4.02 2.46-2.62 0.12-2.62 0.12-5 0l2 2c-2.76 0.77-5.25 1.14-8.11 1.19-0.8 0.02-1.59 0.03-2.42 0.05-1.27 0.02-1.27 0.02-2.58 0.04-0.88 0.02-1.76 0.04-2.66 0.06-3.76 0.08-7.52 0.14-11.28 0.21-2.75 0.05-5.5 0.11-8.24 0.17-0.86 0.01-1.72 0.03-2.6 0.04-3.87-0.29-3.87-0.29-7.11 1.24-0.11 1.64-0.15 3.29-0.16 4.93-0.01 1.58-0.01 1.58-0.03 3.19-0.01 1.14-0.01 2.29-0.02 3.47-0.03 2.39-0.06 4.79-0.09 7.19-0.04 3.8-0.08 7.6-0.1 11.4-0.03 3.66-0.07 7.31-0.12 10.97-0.01 1.14-0.01 2.28-0.01 3.46-0.02 1.05-0.04 2.11-0.05 3.2-0.01 0.93-0.02 1.86-0.03 2.82-0.46 2.81-1.26 3.57-3.39 5.37l-1 2c-4.34 0.05-8.68 0.09-13.02 0.11-1.48 0.01-2.96 0.02-4.43 0.04-2.13 0.03-4.25 0.04-6.38 0.05-1.28 0.01-2.55 0.02-3.87 0.03-3.07-0.21-4.74-0.6-7.3-2.23v-3h-2c-0.78-4.14-1.13-8.06-1.15-12.28-0.01-1.23-0.02-2.47-0.03-3.75 0-1.36-0.01-2.72-0.01-4.08-0.01-1.44-0.02-2.89-0.03-4.33-0.02-4.72-0.04-9.44-0.05-14.16-0.01-1.63-0.01-3.26-0.02-4.88-0.02-6.77-0.04-13.54-0.05-20.3-0.02-9.7-0.05-19.39-0.11-29.08-0.04-6.82-0.06-13.64-0.06-20.46 0-4.07-0.02-8.14-0.05-12.22-0.03-3.82-0.04-7.65-0.02-11.48 0-1.4-0.01-2.81-0.03-4.21-0.02-1.92-0.01-3.83 0-5.75 0-1.07 0-2.14-0.01-3.25 0.62-2.77 0.62-2.77 3.03-5.15 2.59-1.62 2.59-1.62 4.59-1.62l1-2c23.76 0.33 47.52 0.66 72 1v-2zm-11 43v1h5v-1h-5zm-26 1c-0.42 2.06-0.81 4.12-1.19 6.19-0.22 1.15-0.44 2.29-0.67 3.48-0.17 3.99 0.29 5.3 2.86 8.33 2.68 0.5 4.73 0.66 7.41 0.59h2.18c1.52 0 3.05-0.02 4.57-0.05 2.33-0.04 4.66-0.04 6.99-0.03 1.48-0.01 2.96-0.03 4.44-0.04h2.12c3.84-0.07 3.84-0.07 7.09-1.91 0.59-0.77 0.59-0.77 1.2-1.56 0.87-0.45 1.73-0.91 2.62-1.38 2.56-1.41 2.56-1.41 3.26-4 0.13-2.73-0.3-4.96-0.88-7.62-14.07-1.88-27.81-3.69-42-2zm82 14 1 4zm-3 2 1 3zm-8 19 1 2zm-4 5c1.49 0.99 1.49 0.99 3 2v-2h-3zm-34 18v1h9v-1h-9zm-38 52 1 2zm1 3 1 2zm-1 2 1 2zm-29 4v1h26v-1h-26z" fill="#3674C3"/>
<path transform="translate(653,1056)" d="m0 0c0.5 0.99 0.5 0.99 1 2h32l1-2v2c1.15-0.04 2.31-0.08 3.5-0.12 4.47 0 8.23 0.79 12.5 2.12 2 2 2 2 3 4 1.09 0.27 2.19 0.54 3.31 0.81 4.28 1.38 5.18 2.59 7.69 6.19l2.38 2.38c9.06 9.06 9.06 9.06 9.62 14.62 0.59 2.35 1.25 4.69 2 7l2 1c0.35 3.75 0.27 5.57-1.75 8.81-4.89 4.76-12.23 3.48-18.67 3.54-1.34 0.02-2.69 0.04-4.03 0.08-1.95 0.06-3.91 0.08-5.86 0.09-1.74 0.03-1.74 0.03-3.52 0.06-4.09-0.75-5.44-2.54-8.17-5.58-3.66-1.22-7.03-1.14-10.84-1.13-0.77 0-1.53 0-2.32-0.01-1.62 0-3.24 0.01-4.86 0.01-2.47 0-4.95 0-7.42-0.01-1.57 0-3.14 0.01-4.72 0.01-1.11-0.01-1.11-0.01-2.24-0.01-3.14 0.02-5.6 0.14-8.6 1.14-2.31 3.29-2.23 6.26-2.18 10.19 0.01 1.25 0.02 2.5 0.03 3.79 0.02 1.36 0.04 2.72 0.07 4.09 0.02 1.4 0.03 2.8 0.05 4.2 0.04 2.92 0.09 5.85 0.14 8.78 0.07 3.76 0.11 7.51 0.15 11.27 0.03 2.89 0.08 5.78 0.13 8.66 0.02 1.39 0.03 2.77 0.05 4.16 0.02 1.93 0.06 3.87 0.1 5.8 0.01 1.1 0.03 2.2 0.05 3.33 0.46 3.08 0.97 3.89 3.41 5.73 4.45 2.96 7.1 4.25 12.5 4.23 1.58 0 1.58 0 3.19-0.01 1.09-0.01 2.18-0.02 3.31-0.03h3.31c6.45 0.12 6.45 0.12 12.69-1.19l1-2c2.56-0.62 2.56-0.62 5-1 0.5-1.48 0.5-1.48 1-3v2c0.8-0.24 0.8-0.24 1.62-0.49 2.85-0.61 5.48-0.64 8.39-0.64 1.15 0 2.3-0.01 3.49-0.01 1.79 0.01 1.79 0.01 3.62 0.02 1.81-0.01 1.81-0.01 3.66-0.02 1.72 0.01 1.72 0.01 3.48 0.01h3.19c2.55 0.13 2.55 0.13 4.55 1.13l1-2 1 2c0.85 0.41 1.69 0.83 2.56 1.25 0.81 0.58 1.61 1.15 2.44 1.75 0.31 3.19 0.31 3.19 0 6h-1v-5l-1 1c0.02 0.95 0.04 1.9 0.06 2.88-0.06 3.12-0.06 3.12-2.06 6.12-0.52 2.57-0.88 5.13-1.24 7.72-0.76 2.28-0.76 2.28-2.8 3.48-0.64 0.26-1.29 0.53-1.96 0.8-0.61 1.86-0.61 1.86-1 4-1.97 4.63-4.59 6.21-8.99 8.22-2.31 0.9-4.55 1.47-7.01 1.78l4 1-4.38 1.5c-0.81 0.28-1.62 0.56-2.46 0.84-2.16 0.66-2.16 0.66-4.16 0.66l-2 3c-5.04 2.32-9.87 2.31-15.31 2.3-0.88 0.01-1.77 0.01-2.68 0.01-1.87 0.01-3.73 0.01-5.6 0.01-2.84-0.01-5.67 0.02-8.51 0.04h-5.46c-0.84 0.01-1.68 0.02-2.55 0.03-6.26-0.05-10.36-1.52-15.89-4.45-2.9-1.36-5.92-2.11-9-2.94v-2c-0.84-0.37-0.84-0.37-1.69-0.75-4.77-2.58-8.65-6.28-12.31-10.25v-2c-0.99-0.33-1.98-0.66-3-1h2v-2c-0.99-0.33-1.98-0.66-3-1-2.15-3.23-2.2-4.28-2-8h-4c0.5-0.99 0.5-0.99 1-2l2 1c-0.48-1.31-0.96-2.63-1.44-3.94-0.26-0.73-0.53-1.46-0.81-2.21-0.6-1.83-0.6-1.83-1.75-2.85-1.21-7.96-1.16-16.05-1.17-24.09 0-1.21 0-2.43-0.01-3.69 0-2.56-0.01-5.13-0.01-7.69 0-3.89-0.02-7.77-0.03-11.66-0.01-2.51-0.01-5.01-0.01-7.52-0.01-1.14-0.01-2.29-0.02-3.47 0.05-19.81 0.05-19.81 5.25-27.88 0.59-2.26 0.59-2.26 0.88-4.5 0.88-4.5 2.65-6.46 6.12-9.5 0.33-0.7 0.66-1.4 1-2.12 1.41-2.65 3.43-3.39 6-4.88 0.85-0.87 1.69-1.73 2.56-2.62 2.45-2.39 3.29-2.7 6.44-3.38l1-3c3.84-2.06 7.51-2.36 11.81-2.62 1.16-0.08 2.33-0.15 3.52-0.23 0.88-0.05 1.76-0.1 2.67-0.15v-2zm-2 43 2 2v-2h-2zm78 0c0.99 0.49 0.99 0.49 2 1l1 2v-3h-3zm-3 4v2l2-1-2-1zm-8 97 1 2zm-1 4-1 2h2l-1-2zm-6 3 1 2zm-18 9-1 3h2l-1-3zm-38 2 4 1z" fill="#3573C3"/>
<path transform="translate(581.44 1057.8)" d="m0 0c1.12-0.01 2.24-0.02 3.39-0.04 10.31-0.02 10.31-0.02 15.17 2.23 1.81 1.81 1.13 4.59 1.13 7.03 0 1.31 0.01 2.62 0.01 3.97 0 1.47-0.01 2.93-0.01 4.4 0 1.53 0.01 3.07 0.01 4.6v12.53c-0.01 4.37 0 8.73 0 13.09 0 7.33 0 14.66-0.01 21.99v25.45c0.01 7.28 0.01 14.55 0.01 21.82v13.05c0 4.08 0 8.17-0.01 12.26 0 1.5 0 3.01 0.01 4.51 0 2.05-0.01 4.09-0.01 6.14v3.48c-0.13 2.68-0.13 2.68-1.13 4.68h-3v2c-4.2 0.05-8.4 0.08-12.6 0.11-1.42 0.01-2.85 0.02-4.28 0.04-2.05 0.02-4.11 0.03-6.16 0.04-1.86 0.02-1.86 0.02-3.75 0.03-4.05-0.28-6.02-0.96-8.79-3.91-1.85-3.02-1.8-5.05-1.81-8.58-0.01-1.29-0.01-2.58-0.03-3.91 0.01-1.42 0.01-2.85 0.02-4.27-0.01-1.51-0.01-3.01-0.02-4.51-0.02-4.08-0.02-8.16-0.01-12.24 0-3.41-0.01-6.81-0.01-10.22-0.02-8.03-0.01-16.06 0-24.09 0.01-8.29-0.01-16.58-0.03-24.87-0.03-7.11-0.03-14.23-0.03-21.34 0.01-4.25 0.01-8.5-0.01-12.75-0.02-4-0.01-7.99 0.01-11.99 0-1.46 0-2.93-0.01-4.4-0.02-2 0-4 0.01-6v-3.4c0.5-2.74 0.5-2.74 2.38-4.58 5.9-3.23 13.04-2.35 19.56-2.35zm16.56 150.19 1 3zm0 5 1 3zm-30 6v1h26v-1h-26z" fill="#3271C2"/>
</svg>
