<svg width="80" height="58" viewBox="0 0 80 58" fill="none" xmlns="http://www.w3.org/2000/svg">
<path fill-rule="evenodd" clip-rule="evenodd" d="M0 10.9833C0 7.34368 2.95045 4.39334 6.59 4.39334H41.7367C45.3763 4.39334 48.3267 7.34368 48.3267 10.9833V15.3767H60.8872C62.5439 15.3767 64.1398 16.0007 65.3572 17.1243L76.9598 27.8346C78.3114 29.0821 79.08 30.8377 79.08 32.677V50.5233H65.9V46.13H74.6867V32.677C74.6867 32.0639 74.4305 31.4787 73.98 31.0629L62.3772 20.3526C61.9715 19.978 61.4394 19.77 60.8872 19.77H48.3267V46.13H52.72V50.5233H24.1633V46.13H43.9333V10.9833C43.9333 9.77012 42.9499 8.78667 41.7367 8.78667H6.59C5.37683 8.78667 4.39333 9.77012 4.39333 10.9833V46.13H10.9833V50.5233H0V10.9833Z" fill="#333333"/>
<path fill-rule="evenodd" clip-rule="evenodd" d="M17.5733 52.72C19.9998 52.72 21.9667 50.7531 21.9667 48.3267C21.9667 45.9002 19.9998 43.9333 17.5733 43.9333C15.1469 43.9333 13.18 45.9002 13.18 48.3267C13.18 50.7531 15.1469 52.72 17.5733 52.72ZM17.5733 57.1133C22.426 57.1133 26.36 53.1793 26.36 48.3267C26.36 43.474 22.426 39.54 17.5733 39.54C12.7207 39.54 8.78667 43.474 8.78667 48.3267C8.78667 53.1793 12.7207 57.1133 17.5733 57.1133Z" fill="#333333"/>
<path fill-rule="evenodd" clip-rule="evenodd" d="M59.31 52.72C61.7364 52.72 63.7033 50.7531 63.7033 48.3267C63.7033 45.9002 61.7364 43.9333 59.31 43.9333C56.8836 43.9333 54.9167 45.9002 54.9167 48.3267C54.9167 50.7531 56.8836 52.72 59.31 52.72ZM59.31 57.1133C64.1627 57.1133 68.0967 53.1793 68.0967 48.3267C68.0967 43.474 64.1627 39.54 59.31 39.54C54.4573 39.54 50.5233 43.474 50.5233 48.3267C50.5233 53.1793 54.4573 57.1133 59.31 57.1133Z" fill="#333333"/>
<path fill-rule="evenodd" clip-rule="evenodd" d="M76.8833 35.1467H46.13V30.7533H76.8833V35.1467Z" fill="#333333"/>
<path fill-rule="evenodd" clip-rule="evenodd" d="M24.1633 13.18C25.3766 13.18 26.36 14.1634 26.36 15.3767V32.95C26.36 34.1632 25.3766 35.1467 24.1633 35.1467C22.9501 35.1467 21.9667 34.1632 21.9667 32.95V15.3767C21.9667 14.1634 22.9501 13.18 24.1633 13.18Z" fill="#333333"/>
<path fill-rule="evenodd" clip-rule="evenodd" d="M54.9167 8.78667C56.1299 8.78667 57.1133 9.77011 57.1133 10.9833V17.5733H52.72V10.9833C52.72 9.77011 53.7034 8.78667 54.9167 8.78667Z" fill="#333333"/>
<path fill-rule="evenodd" clip-rule="evenodd" d="M13.18 24.1633C13.18 22.9501 14.1634 21.9667 15.3767 21.9667H32.95C34.1632 21.9667 35.1467 22.9501 35.1467 24.1633C35.1467 25.3766 34.1632 26.36 32.95 26.36H15.3767C14.1634 26.36 13.18 25.3766 13.18 24.1633Z" fill="#333333"/>
<path fill-rule="evenodd" clip-rule="evenodd" d="M59.31 17.5733H50.5233V13.18H59.31V17.5733Z" fill="#333333"/>
<path fill-rule="evenodd" clip-rule="evenodd" d="M54.9167 4.39333L57.1133 0H52.72L54.9167 4.39333Z" fill="#333333"/>
<path fill-rule="evenodd" clip-rule="evenodd" d="M60.863 4.65979L65.5228 3.10653L62.4163 0L60.863 4.65979Z" fill="#333333"/>
<path fill-rule="evenodd" clip-rule="evenodd" d="M61.5067 10.9833L65.9 13.18V8.78667L61.5067 10.9833Z" fill="#333333"/>
</svg>
