<svg width="80" height="58" viewBox="0 0 80 58" fill="none" xmlns="http://www.w3.org/2000/svg">
<path d="M54.9167 4.39333L57.1133 0H52.72L54.9167 4.39333Z" fill="#333333"/>
<path fill-rule="evenodd" clip-rule="evenodd" d="M6.59 4.39334C2.95045 4.39334 0 7.34368 0 10.9833V50.5233H9.06345C10.039 54.313 13.4792 57.1133 17.5733 57.1133C21.6675 57.1133 25.1077 54.313 26.0832 50.5233H50.8001C51.7757 54.313 55.2159 57.1133 59.31 57.1133C63.4041 57.1133 66.8443 54.313 67.8199 50.5233H79.08V32.677C79.08 30.8377 78.3114 29.0821 76.9598 27.8346L65.3572 17.1243C64.1398 16.0007 62.5439 15.3767 60.8872 15.3767H59.31V13.18H57.1133V10.9833C57.1133 9.77012 56.1299 8.78667 54.9167 8.78667C53.7034 8.78667 52.72 9.77012 52.72 10.9833V13.18H50.5233V15.3767H48.3267V10.9833C48.3267 7.34368 45.3763 4.39334 41.7367 4.39334H6.59ZM59.31 39.54C55.2159 39.54 51.7757 42.3403 50.8001 46.13H48.3267V35.1467H74.6867V46.13H67.8199C66.8443 42.3403 63.4041 39.54 59.31 39.54ZM73.6448 30.7533H48.3267V19.77H60.8872C61.4394 19.77 61.9715 19.978 62.3772 20.3526L73.6448 30.7533ZM21.9667 48.3267C21.9667 50.7531 19.9998 52.72 17.5733 52.72C15.1469 52.72 13.18 50.7531 13.18 48.3267C13.18 45.9002 15.1469 43.9333 17.5733 43.9333C19.9998 43.9333 21.9667 45.9002 21.9667 48.3267ZM59.31 52.72C61.7364 52.72 63.7033 50.7531 63.7033 48.3267C63.7033 45.9002 61.7364 43.9333 59.31 43.9333C56.8836 43.9333 54.9167 45.9002 54.9167 48.3267C54.9167 50.7531 56.8836 52.72 59.31 52.72ZM24.1633 13.18C25.3766 13.18 26.36 14.1635 26.36 15.3767V21.9667H32.95C34.1632 21.9667 35.1467 22.9501 35.1467 24.1633C35.1467 25.3766 34.1632 26.36 32.95 26.36H26.36V32.95C26.36 34.1632 25.3766 35.1467 24.1633 35.1467C22.9501 35.1467 21.9667 34.1632 21.9667 32.95V26.36H15.3767C14.1634 26.36 13.18 25.3766 13.18 24.1633C13.18 22.9501 14.1634 21.9667 15.3767 21.9667H21.9667V15.3767C21.9667 14.1635 22.9501 13.18 24.1633 13.18Z" fill="#333333"/>
<path d="M60.8633 4.65979L65.523 3.10653L62.4165 0L60.8633 4.65979Z" fill="#333333"/>
<path d="M61.5067 10.9833L65.9 13.18V8.78667L61.5067 10.9833Z" fill="#333333"/>
</svg>
