<svg width="80" height="80" viewBox="0 0 80 80" fill="none" xmlns="http://www.w3.org/2000/svg">
<path d="M57.1133 6.59C57.1133 2.95045 60.0637 0 63.7033 0H72.49C76.1297 0 79.08 2.95045 79.08 6.59V72.49C79.08 76.1297 76.1297 79.08 72.49 79.08H63.7033C60.0637 79.08 57.1133 76.1297 57.1133 72.49V6.59Z" fill="#333333"/>
<path d="M28.5567 32.95C28.5567 29.3103 31.507 26.36 35.1467 26.36H43.9333C47.573 26.36 50.5233 29.3103 50.5233 32.95V72.49C50.5233 76.1297 47.573 79.08 43.9333 79.08H35.1467C31.507 79.08 28.5567 76.1297 28.5567 72.49V32.95Z" fill="#333333"/>
<path d="M6.59 52.72C2.95045 52.72 0 55.6703 0 59.31V72.49C0 76.1297 2.95045 79.08 6.59 79.08H15.3767C19.0163 79.08 21.9667 76.1297 21.9667 72.49V59.31C21.9667 55.6703 19.0163 52.72 15.3767 52.72H6.59Z" fill="#333333"/>
</svg>
