<?xml version="1.0" encoding="iso-8859-1"?>
<!-- Uploaded to: SVG Repo, www.svgrepo.com, Generator: SVG Repo Mixer Tools -->
<svg fill="#000000" height="800px" width="800px" version="1.1" id="Layer_1" xmlns="http://www.w3.org/2000/svg" xmlns:xlink="http://www.w3.org/1999/xlink" 
	 viewBox="0 0 512 512" xml:space="preserve">
<g>
	<g>
		<g>
			<path d="M298.667,277.333h-85.333c-5.888,0-10.667,4.779-10.667,10.667s4.779,10.667,10.667,10.667h85.333
				c5.888,0,10.667-4.779,10.667-10.667S304.555,277.333,298.667,277.333z"/>
			<path d="M490.667,448H480v-53.333c0-37.525-27.904-68.352-64-73.579V160C416,71.765,344.235,0,256,0S96,71.765,96,160v161.088
				c-36.096,5.227-64,36.075-64,73.579V448H21.333c-5.888,0-10.667,4.779-10.667,10.667v42.667c0,5.888,4.779,10.667,10.667,10.667
				h469.333c5.888,0,10.667-4.779,10.667-10.667v-42.667C501.333,452.779,496.555,448,490.667,448z M416,342.4
				c24.32,4.971,42.667,26.496,42.667,52.267V448H416V342.4z M117.333,160c0-76.459,62.208-138.667,138.667-138.667
				S394.667,83.541,394.667,160v288H117.333V160z M53.333,394.667c0-25.771,18.347-47.317,42.667-52.267V448H53.333V394.667z
				 M480,490.667H32v-21.333h448V490.667z"/>
			<path d="M320,213.333H192c-5.888,0-10.667,4.779-10.667,10.667s4.779,10.667,10.667,10.667h128
				c5.888,0,10.667-4.779,10.667-10.667S325.888,213.333,320,213.333z"/>
			<path d="M320,149.333H192c-5.888,0-10.667,4.779-10.667,10.667s4.779,10.667,10.667,10.667h128
				c5.888,0,10.667-4.779,10.667-10.667S325.888,149.333,320,149.333z"/>
		</g>
	</g>
</g>
</svg>