<svg width="31" height="36" viewBox="0 0 31 36" fill="none" xmlns="http://www.w3.org/2000/svg">
<path d="M13 21C18.5228 21 23 16.5228 23 11C23 5.47715 18.5228 1 13 1C7.47715 1 3 5.47715 3 11C3 16.5228 7.47715 21 13 21Z" stroke="black" stroke-width="2" stroke-linecap="round" stroke-linejoin="round"/>
<path d="M16 6H11L10 7V10L11 11H15L16 12V15L15 16H10" stroke="black" stroke-width="2" stroke-linecap="round" stroke-linejoin="round"/>
<path d="M13 6V4" stroke="black" stroke-width="2" stroke-linecap="round" stroke-linejoin="round"/>
<path d="M13 16V18" stroke="black" stroke-width="2" stroke-linecap="round" stroke-linejoin="round"/>
<path d="M30 29L25.17 24.17C24.42 23.42 23.4 23 22.34 23H21L19 24H15C13.9 24 13 24.9 13 26V28" stroke="black" stroke-width="2" stroke-linecap="round" stroke-linejoin="round"/>
<path d="M24 34.9999L22 32.9999H10L1 23.9999L2.57001 23.6099C4.10001 23.2299 5.73001 23.5799 6.96001 24.5699L11 27.9999H19" stroke="black" stroke-width="2" stroke-linecap="round" stroke-linejoin="round"/>
</svg>
