<svg width="24" height="24" viewBox="0 0 24 24" fill="none" xmlns="http://www.w3.org/2000/svg">
<path fill-rule="evenodd" clip-rule="evenodd" d="M12.0001 2.333C9.64482 2.33045 7.36563 3.16677 5.57097 4.69206C3.77631 6.21735 2.5835 8.33191 2.20631 10.6568C1.82912 12.9817 2.29221 15.3649 3.51258 17.3793C4.73295 19.3938 6.63083 20.9078 8.8661 21.65C9.3661 21.742 9.5441 21.435 9.5441 21.173C9.5441 20.936 9.5341 20.156 9.5301 19.328C6.7731 19.928 6.1921 18.159 6.1921 18.159C6.01013 17.5597 5.62002 17.0451 5.0921 16.708C4.1921 16.093 5.1611 16.108 5.1611 16.108C5.47531 16.1513 5.77549 16.2658 6.03874 16.4427C6.30199 16.6197 6.52135 16.8544 6.6801 17.129C6.81438 17.3734 6.99578 17.5888 7.21383 17.7627C7.43187 17.9366 7.68223 18.0656 7.95042 18.1421C8.21861 18.2186 8.49931 18.2412 8.77629 18.2086C9.05327 18.176 9.32103 18.0888 9.5641 17.952C9.60831 17.4493 9.83151 16.9791 10.1931 16.627C7.9931 16.377 5.6781 15.527 5.6781 11.727C5.66442 10.7423 6.0304 9.79007 6.7001 9.068C6.39653 8.21348 6.43051 7.27532 6.7951 6.445C6.7951 6.445 7.6271 6.179 9.5211 7.461C11.1453 7.01701 12.8589 7.01701 14.4831 7.461C16.3731 6.179 17.2001 6.445 17.2001 6.445C17.5662 7.2747 17.602 8.21283 17.3001 9.068C17.9695 9.79011 18.3348 10.7425 18.3201 11.727C18.3201 15.534 16.0011 16.371 13.7951 16.616C14.0313 16.8562 14.2135 17.1441 14.3295 17.4604C14.4456 17.7766 14.4928 18.114 14.4681 18.45C14.4681 19.776 14.4561 20.844 14.4561 21.17C14.4561 21.433 14.6351 21.742 15.1371 21.645C17.3689 20.9 19.2628 19.3852 20.4802 17.3717C21.6975 15.3582 22.1588 12.9773 21.7815 10.6549C21.4043 8.33247 20.2131 6.22 18.421 4.69534C16.629 3.17069 14.353 2.33331 12.0001 2.333Z" fill="#2F2F38"/>
</svg>
