<svg width="80" height="84" viewBox="0 0 80 84" fill="none" xmlns="http://www.w3.org/2000/svg">
<path fill-rule="evenodd" clip-rule="evenodd" d="M79.08 83.2421H0V79.08H79.08V83.2421Z" fill="#333333"/>
<path fill-rule="evenodd" clip-rule="evenodd" d="M39.54 6.24316C40.6894 6.24316 41.6211 7.17489 41.6211 8.32422V20.8105C41.6211 21.9599 40.6894 22.8916 39.54 22.8916C38.3906 22.8916 37.4589 21.9599 37.4589 20.8105V8.32422C37.4589 7.17489 38.3906 6.24316 39.54 6.24316Z" fill="#333333"/>
<path fill-rule="evenodd" clip-rule="evenodd" d="M31.2158 14.5674C31.2158 13.418 32.1475 12.4863 33.2968 12.4863H45.7832C46.9325 12.4863 47.8642 13.418 47.8642 14.5674C47.8642 15.7167 46.9325 16.6484 45.7832 16.6484H33.2968C32.1475 16.6484 31.2158 15.7167 31.2158 14.5674Z" fill="#333333"/>
<path fill-rule="evenodd" clip-rule="evenodd" d="M47.8642 4.16211H31.2158C30.0664 4.16211 29.1347 5.09383 29.1347 6.24316V22.8916C29.1347 24.0409 30.0664 24.9726 31.2158 24.9726H47.8642C49.0136 24.9726 49.9453 24.0409 49.9453 22.8916V6.24316C49.9453 5.09383 49.0136 4.16211 47.8642 4.16211ZM31.2158 0H47.8642C51.3123 0 54.1074 2.79517 54.1074 6.24316V22.8916C54.1074 26.3397 51.3123 29.1347 47.8642 29.1347H31.2158C27.7677 29.1347 24.9726 26.3397 24.9726 22.8916V6.24316C24.9726 2.79517 27.7677 0 31.2158 0Z" fill="#333333"/>
<path fill-rule="evenodd" clip-rule="evenodd" d="M8.32421 27.0537C8.32421 23.6056 11.1193 20.8105 14.5674 20.8105H25.5122V24.9726H14.5674C13.418 24.9726 12.4863 25.9043 12.4863 27.0537V79.08H8.32421V27.0537Z" fill="#333333"/>
<path fill-rule="evenodd" clip-rule="evenodd" d="M70.7558 27.0537C70.7558 23.6056 67.9607 20.8105 64.5126 20.8105H53.5677V24.9726H64.5126C65.662 24.9726 66.5937 25.9043 66.5937 27.0537V79.08H70.7558V27.0537Z" fill="#333333"/>
<path fill-rule="evenodd" clip-rule="evenodd" d="M39.54 62.4316C37.2413 62.4316 35.3779 64.2949 35.3779 66.5937V81.161H31.2158V66.5937C31.2158 61.9964 34.9427 58.2695 39.54 58.2695C44.1373 58.2695 47.8642 61.9964 47.8642 66.5937V81.161H43.7021V66.5937C43.7021 64.2949 41.8387 62.4316 39.54 62.4316Z" fill="#333333"/>
<path fill-rule="evenodd" clip-rule="evenodd" d="M27.0537 41.6211V33.2968H18.7295V41.6211H27.0537Z" fill="#333333"/>
<path fill-rule="evenodd" clip-rule="evenodd" d="M27.0537 54.1074V45.7832H18.7295V54.1074H27.0537Z" fill="#333333"/>
<path fill-rule="evenodd" clip-rule="evenodd" d="M43.7021 41.6211V33.2968H35.3779V41.6211H43.7021Z" fill="#333333"/>
<path fill-rule="evenodd" clip-rule="evenodd" d="M43.7021 54.1074V45.7832H35.3779V54.1074H43.7021Z" fill="#333333"/>
<path fill-rule="evenodd" clip-rule="evenodd" d="M60.3505 41.6211V33.2968H52.0263V41.6211H60.3505Z" fill="#333333"/>
<path fill-rule="evenodd" clip-rule="evenodd" d="M60.3505 54.1074V45.7832H52.0263V54.1074H60.3505Z" fill="#333333"/>
</svg>
