<svg width="80" height="84" viewBox="0 0 80 84" fill="none" xmlns="http://www.w3.org/2000/svg">
<path d="M27.0537 41.6211V33.2968H18.7295V41.6211H27.0537Z" fill="#333333"/>
<path d="M27.0537 45.7832V54.1074H18.7295V45.7832H27.0537Z" fill="#333333"/>
<path d="M43.7021 41.6211V33.2968H35.3779V41.6211H43.7021Z" fill="#333333"/>
<path d="M43.7021 45.7832V54.1074H35.3779V45.7832H43.7021Z" fill="#333333"/>
<path d="M60.3505 41.6211V33.2968H52.0263V41.6211H60.3505Z" fill="#333333"/>
<path d="M60.3505 45.7832V54.1074H52.0263V45.7832H60.3505Z" fill="#333333"/>
<path fill-rule="evenodd" clip-rule="evenodd" d="M31.2158 0H47.8642C51.3123 0 54.1074 2.79517 54.1074 6.24316V20.8105H64.5126C67.9607 20.8105 70.7558 23.6056 70.7558 27.0537V79.08H79.08V83.2421H0V79.08H8.32421V27.0537C8.32421 23.6056 11.1193 20.8105 14.5674 20.8105H24.9726V6.24316C24.9726 2.79517 27.7677 0 31.2158 0ZM12.4863 79.08H31.2158V66.5937C31.2158 61.9964 34.9427 58.2695 39.54 58.2695C44.1373 58.2695 47.8642 61.9964 47.8642 66.5937V79.08H66.5937V27.0537C66.5937 25.9043 65.662 24.9726 64.5126 24.9726H53.7521C52.8952 27.3975 50.5825 29.1347 47.8642 29.1347H31.2158C28.4975 29.1347 26.1848 27.3975 25.3279 24.9726H14.5674C13.418 24.9726 12.4863 25.9043 12.4863 27.0537V79.08ZM41.6211 8.32421C41.6211 7.17489 40.6894 6.24316 39.54 6.24316C38.3906 6.24316 37.459 7.17489 37.459 8.32421V12.4863H33.2968C32.1475 12.4863 31.2158 13.418 31.2158 14.5674C31.2158 15.7167 32.1475 16.6484 33.2968 16.6484H37.459V20.8105C37.459 21.9599 38.3906 22.8916 39.54 22.8916C40.6894 22.8916 41.6211 21.9599 41.6211 20.8105V16.6484H45.7832C46.9325 16.6484 47.8642 15.7167 47.8642 14.5674C47.8642 13.418 46.9325 12.4863 45.7832 12.4863H41.6211V8.32421Z" fill="#333333"/>
</svg>
