<svg width="80" height="80" viewBox="0 0 80 80" fill="none" xmlns="http://www.w3.org/2000/svg">
<path fill-rule="evenodd" clip-rule="evenodd" d="M50.5233 0V4.39333C50.5233 7.26266 52.3571 9.70378 54.9167 10.6084V13.18H52.72C51.5068 13.18 50.5233 14.1634 50.5233 15.3767V28.5567C50.5233 29.7699 51.5068 30.7533 52.72 30.7533H61.5067C62.7199 30.7533 63.7033 29.7699 63.7033 28.5567V15.3767C63.7033 14.1634 62.7199 13.18 61.5067 13.18H59.31V10.9833H70.2933V37.4892H30.995C30.8159 37.4892 30.6439 37.4174 30.5172 37.2897L29.7123 36.4796L30.5216 35.671C33.7579 32.4375 33.7597 27.1932 30.5255 23.9575L26.5711 20.0011C23.3374 16.7656 18.0926 16.7639 14.8565 19.9971L13.3098 21.5425C10.368 20.7064 7.07667 21.4546 4.76024 23.7866C1.34214 27.2279 1.34214 32.8129 4.76024 36.2542L6.59 38.0964V61.5067H0V65.9H6.70095C5.2769 67.2955 4.39333 69.2405 4.39333 71.3917C4.39333 75.6378 7.83551 79.08 12.0817 79.08C16.3278 79.08 19.77 75.6378 19.77 71.3917C19.77 69.2405 18.8865 67.2955 17.4624 65.9H61.6176C60.1935 67.2955 59.31 69.2405 59.31 71.3917C59.31 75.6378 62.7522 79.08 66.9983 79.08C71.2445 79.08 74.6867 75.6378 74.6867 71.3917C74.6867 69.2405 73.8032 67.2955 72.3791 65.9H79.08V61.5067H70.2933V54.916H70.4388C75.2112 54.916 79.08 51.015 79.08 46.2025C79.08 42.9473 77.3095 40.1087 74.6867 38.6128V10.9833C74.6867 8.55696 72.7198 6.59 70.2933 6.59H57.1133C55.9001 6.59 54.9167 5.60651 54.9167 4.39333V0H50.5233ZM17.1918 23.8743L26.6163 33.3625L27.4164 32.5632C28.936 31.0448 28.9369 28.5826 27.4184 27.0634L23.4639 23.107C21.9451 21.5873 19.4816 21.5864 17.9617 23.105L17.1918 23.8743ZM65.9 61.5067H10.9833V42.5193L22.5712 54.1856C23.0358 54.6533 23.6654 54.916 24.3219 54.916H65.9V61.5067Z" fill="#333333"/>
</svg>
