<svg width="80" height="80" viewBox="0 0 80 80" fill="none" xmlns="http://www.w3.org/2000/svg">
<path fill-rule="evenodd" clip-rule="evenodd" d="M50.5233 4.39333V0H54.9166V4.39333C54.9166 5.60651 55.9001 6.59 57.1133 6.59H70.2933C72.7198 6.59 74.6866 8.55696 74.6866 10.9833V39.54C74.6866 40.7532 73.7032 41.7367 72.49 41.7367C71.2768 41.7367 70.2933 40.7532 70.2933 39.54V10.9833H57.1133C53.4737 10.9833 50.5233 8.03288 50.5233 4.39333Z" fill="#333333"/>
<path fill-rule="evenodd" clip-rule="evenodd" d="M54.9166 17.5733V26.36H59.31V17.5733H54.9166ZM52.72 13.18C51.5068 13.18 50.5233 14.1634 50.5233 15.3767V28.5567C50.5233 29.7699 51.5068 30.7533 52.72 30.7533H61.5066C62.7199 30.7533 63.7033 29.7699 63.7033 28.5567V15.3767C63.7033 14.1634 62.7199 13.18 61.5066 13.18H52.72Z" fill="#333333"/>
<path fill-rule="evenodd" clip-rule="evenodd" d="M54.9167 14.2783V6.59H59.31V14.2783H54.9167Z" fill="#333333"/>
<path fill-rule="evenodd" clip-rule="evenodd" d="M70.4387 41.8825H30.995C29.6401 41.8825 28.348 41.3399 27.4003 40.3859L30.5172 37.2897C30.6439 37.4174 30.8159 37.4892 30.995 37.4892H70.4387C75.2112 37.4892 79.08 41.3903 79.08 46.2025C79.08 51.0149 75.2112 54.916 70.4387 54.916H24.3219C23.6653 54.916 23.0358 54.6533 22.5712 54.1856L4.76023 36.2542C1.34213 32.8129 1.34213 27.2279 4.76023 23.7866C8.17067 20.3532 13.6944 20.3532 17.1048 23.7866L30.5172 37.2897L27.4003 40.3859L13.9877 26.8828C12.2954 25.1789 9.56955 25.1789 7.87724 26.8828C6.16091 28.6107 6.16091 31.4301 7.87724 33.1582L25.1252 50.5227H70.4387C72.7505 50.5227 74.6867 48.623 74.6867 46.2025C74.6867 43.782 72.7503 41.8825 70.4387 41.8825Z" fill="#333333"/>
<path d="M6.59 37.3433L10.9833 39.9394V65.9H6.59V37.3433Z" fill="#333333"/>
<path d="M65.9 53.8697H70.2933V66.3374H65.9V53.8697Z" fill="#333333"/>
<path fill-rule="evenodd" clip-rule="evenodd" d="M79.08 65.9H0V61.5067H79.08V65.9Z" fill="#333333"/>
<path fill-rule="evenodd" clip-rule="evenodd" d="M12.0817 74.6867C13.9014 74.6867 15.3767 73.2114 15.3767 71.3917C15.3767 69.572 13.9014 68.0967 12.0817 68.0967C10.262 68.0967 8.78667 69.572 8.78667 71.3917C8.78667 73.2114 10.262 74.6867 12.0817 74.6867ZM12.0817 79.08C16.3278 79.08 19.77 75.6378 19.77 71.3917C19.77 67.1455 16.3278 63.7033 12.0817 63.7033C7.83552 63.7033 4.39334 67.1455 4.39334 71.3917C4.39334 75.6378 7.83552 79.08 12.0817 79.08Z" fill="#333333"/>
<path fill-rule="evenodd" clip-rule="evenodd" d="M66.9983 74.6867C68.818 74.6867 70.2933 73.2114 70.2933 71.3917C70.2933 69.572 68.818 68.0967 66.9983 68.0967C65.1786 68.0967 63.7033 69.572 63.7033 71.3917C63.7033 73.2114 65.1786 74.6867 66.9983 74.6867ZM66.9983 79.08C71.2445 79.08 74.6867 75.6378 74.6867 71.3917C74.6867 67.1455 71.2445 63.7033 66.9983 63.7033C62.7522 63.7033 59.31 67.1455 59.31 71.3917C59.31 75.6378 62.7522 79.08 66.9983 79.08Z" fill="#333333"/>
<path fill-rule="evenodd" clip-rule="evenodd" d="M14.8565 19.9971C18.0926 16.7639 23.3374 16.7656 26.5711 20.0011L30.5255 23.9575C33.7597 27.1932 33.7579 32.4375 30.5216 35.671L27.2925 38.8973L24.1873 35.7894L27.4164 32.5632C28.936 31.0448 28.9369 28.5826 27.4183 27.0634L23.4639 23.107C21.9451 21.5873 19.4816 21.5864 17.9617 23.105L14.7326 26.3312L11.6274 23.2234L14.8565 19.9971Z" fill="#333333"/>
</svg>
