<svg width="24" height="24" viewBox="0 0 24 24" fill="none" xmlns="http://www.w3.org/2000/svg">
<path d="M15 8.5C15 8.77614 14.7761 9 14.5 9C14.2238 9 14 8.77614 14 8.5C14 8.22386 14.2238 8 14.5 8C14.7761 8 15 8.22386 15 8.5Z" fill="#2F2F38"/>
<path d="M9.56537 10.4229L6.5 17H18.0178L15.5022 13.2907L13 16L9.56537 10.4229Z" fill="#2F2F38"/>
<path d="M20 4H4C3.44772 4 3 4.44772 3 5V19C3 19.5523 3.44772 20 4 20H20C20.5523 20 21 19.5523 21 19V5C21 4.44772 20.5523 4 20 4Z" stroke="#2F2F38" stroke-width="2" stroke-linecap="round" stroke-linejoin="round"/>
<path d="M15 8.5C15 8.77614 14.7761 9 14.5 9C14.2238 9 14 8.77614 14 8.5C14 8.22386 14.2238 8 14.5 8C14.7761 8 15 8.22386 15 8.5Z" stroke="#2F2F38" stroke-width="2" stroke-linecap="round" stroke-linejoin="round"/>
<path d="M9.56537 10.4229L6.5 17H18.0178L15.5022 13.2907L13 16L9.56537 10.4229Z" stroke="#2F2F38" stroke-width="2" stroke-linecap="round" stroke-linejoin="round"/>
</svg>
