<svg width="24" height="24" viewBox="0 0 24 24" fill="none" xmlns="http://www.w3.org/2000/svg">
<path fill-rule="evenodd" clip-rule="evenodd" d="M12.979 9V10.586C13.3122 10.079 13.7715 9.66737 14.3119 9.39143C14.8522 9.11549 15.4549 8.98474 16.061 9.012C19.3 9.012 20 11.03 20 13.655V19H17V14.262C17 13.132 16.771 11.678 15.005 11.678C13.292 11.678 13 12.908 13 14.178V19H10.009V9H12.979Z" fill="#2F2F38"/>
<path fill-rule="evenodd" clip-rule="evenodd" d="M8 6.487C8 6.78367 7.91203 7.07368 7.74721 7.32035C7.58238 7.56703 7.34811 7.75929 7.07403 7.87282C6.79994 7.98635 6.49834 8.01606 6.20737 7.95818C5.91639 7.9003 5.64912 7.75744 5.43934 7.54766C5.22956 7.33788 5.0867 7.07061 5.02882 6.77963C4.97094 6.48866 5.00065 6.18706 5.11418 5.91297C5.22771 5.63889 5.41997 5.40462 5.66665 5.2398C5.91332 5.07497 6.20333 4.987 6.5 4.987C6.89783 4.987 7.27936 5.14503 7.56066 5.42634C7.84197 5.70764 8 6.08917 8 6.487Z" fill="#2F2F38"/>
<path d="M8 9.012H5V19H8V9.012Z" fill="#2F2F38"/>
</svg>
