<svg width="24" height="24" viewBox="0 0 24 24" fill="none" xmlns="http://www.w3.org/2000/svg">
<path d="M11.509 7.75C11.5083 6.25717 11.903 4.7908 12.653 3.5C12.626 3.5 12.599 3.5 12.572 3.5C11.0794 3.49868 9.61279 3.89041 8.31965 4.63578C7.02652 5.38115 5.95245 6.4539 5.20548 7.74611C4.45851 9.03832 4.06498 10.5044 4.06445 11.997C4.06393 13.4896 4.45644 14.956 5.20251 16.2487C5.94858 17.5415 7.02189 18.615 8.31451 19.3612C9.60712 20.1075 11.0735 20.5003 12.566 20.5C14.0586 20.4997 15.5248 20.1064 16.8171 19.3597C18.1095 18.6129 19.1824 17.539 19.928 16.246C17.6884 16.2247 15.5477 15.3203 13.9713 13.7294C12.3948 12.1385 11.5099 9.98968 11.509 7.75Z" stroke="#2F2F38" stroke-width="2" stroke-linecap="round" stroke-linejoin="round"/>
</svg>
