<svg width="24" height="24" viewBox="0 0 24 24" fill="none" xmlns="http://www.w3.org/2000/svg">
<path d="M20.8001 15.75C20.7129 15.599 20.5878 15.4734 20.4371 15.3857C20.2864 15.298 20.1155 15.2512 19.9411 15.25C18.6293 15.2411 17.3428 14.8877 16.2105 14.2252C15.0782 13.5627 14.1398 12.6142 13.4895 11.4749C12.8391 10.3356 12.4995 9.04536 12.5047 7.73349C12.5099 6.42161 12.8597 5.13413 13.5191 4C13.6012 3.85172 13.6443 3.685 13.6443 3.5155C13.6443 3.346 13.6012 3.17928 13.5191 3.031C13.4356 2.88021 13.3158 2.75267 13.1705 2.65994C13.0252 2.56721 12.859 2.51223 12.6871 2.5H12.5741C10.9061 2.49878 9.26711 2.93677 7.82205 3.76992C6.37699 4.60308 5.17676 5.80204 4.34208 7.24622C3.5074 8.6904 3.06768 10.3289 3.06714 11.9969C3.0666 13.665 3.50527 15.3038 4.33902 16.7485C5.17277 18.1932 6.37222 19.3929 7.81675 20.227C9.26127 21.0611 10.9 21.5001 12.568 21.5C14.236 21.4998 15.8746 21.0605 17.319 20.2262C18.7634 19.3918 19.9626 18.1919 20.7961 16.747C20.8839 16.5957 20.9305 16.424 20.9312 16.249C20.9319 16.0741 20.8867 15.902 20.8001 15.75Z" fill="#2F2F38"/>
</svg>
