<svg width="23" height="23" viewBox="0 0 23 23" fill="none" xmlns="http://www.w3.org/2000/svg">
<path d="M11.325 0C5.0625 0 0 5.0625 0 11.325C0 17.5875 5.0625 22.6875 11.325 22.6875C17.5875 22.6875 22.6875 17.5875 22.6875 11.325C22.6875 5.0625 17.5875 0 11.325 0ZM11.325 21C6 21 1.6875 16.65 1.6875 11.325C1.6875 6 6 1.6875 11.325 1.6875C16.65 1.6875 21 6.0375 21 11.3625C21 16.65 16.65 21 11.325 21Z" fill="black"/>
<path d="M12 3.8625C10.9125 3.675 9.78749 3.975 8.96249 4.6875C8.13749 5.4 7.64999 6.4125 7.64999 7.5375C7.64999 7.95 7.72499 8.3625 7.87499 8.775C8.02499 9.225 8.51249 9.45 8.96249 9.3C9.41249 9.15 9.63749 8.6625 9.48749 8.2125C9.41249 7.9875 9.37499 7.7625 9.37499 7.5375C9.37499 6.9375 9.63749 6.375 10.0875 6C10.5375 5.625 11.1375 5.4375 11.775 5.55C12.5625 5.7 13.2375 6.375 13.3875 7.1625C13.5375 8.1 13.05 9.0375 12.1875 9.4125C11.2125 9.825 10.575 10.8 10.575 11.925V14.25C10.575 14.7 10.95 15.1125 11.4375 15.1125C11.8875 15.1125 12.3 14.7375 12.3 14.25V11.925C12.3 11.5125 12.525 11.1375 12.8625 10.9875C14.475 10.3125 15.4125 8.625 15.1125 6.9C14.7 5.3625 13.5 4.125 12 3.8625Z" fill="black"/>
<path d="M11.3625 16.5H11.25C10.8 16.5 10.3875 16.875 10.3875 17.3625C10.3875 17.85 10.7625 18.225 11.25 18.225H11.3625C11.8125 18.225 12.1875 17.85 12.1875 17.3625C12.1875 16.875 11.85 16.5 11.3625 16.5Z" fill="black"/>
</svg>
