<svg width="24" height="24" viewBox="0 0 24 24" fill="none" xmlns="http://www.w3.org/2000/svg">
<g clip-path="url(#clip0_2_3331)">
<path d="M17.75 20.8931C19.4858 20.8931 20.893 19.4859 20.893 17.7501C20.893 16.0142 19.4858 14.6071 17.75 14.6071C16.0142 14.6071 14.607 16.0142 14.607 17.7501C14.607 19.4859 16.0142 20.8931 17.75 20.8931Z" stroke="black" stroke-width="1.5" stroke-linecap="round" stroke-linejoin="round"/>
<path d="M17.226 12.25H18.274" stroke="black" stroke-width="1.5" stroke-linecap="round" stroke-linejoin="round"/>
<path d="M17.75 12.25V14.607" stroke="black" stroke-width="1.5" stroke-linecap="round" stroke-linejoin="round"/>
<path d="M21.269 13.491L22.009 14.231" stroke="black" stroke-width="1.5" stroke-linecap="round" stroke-linejoin="round"/>
<path d="M21.639 13.861L19.972 15.528" stroke="black" stroke-width="1.5" stroke-linecap="round" stroke-linejoin="round"/>
<path d="M23.25 17.226V18.274" stroke="black" stroke-width="1.5" stroke-linecap="round" stroke-linejoin="round"/>
<path d="M23.25 17.75H20.893" stroke="black" stroke-width="1.5" stroke-linecap="round" stroke-linejoin="round"/>
<path d="M22.009 21.269L21.269 22.009" stroke="black" stroke-width="1.5" stroke-linecap="round" stroke-linejoin="round"/>
<path d="M21.639 21.639L19.972 19.972" stroke="black" stroke-width="1.5" stroke-linecap="round" stroke-linejoin="round"/>
<path d="M18.274 23.25H17.226" stroke="black" stroke-width="1.5" stroke-linecap="round" stroke-linejoin="round"/>
<path d="M17.75 23.2499V20.8929" stroke="black" stroke-width="1.5" stroke-linecap="round" stroke-linejoin="round"/>
<path d="M14.231 22.009L13.491 21.269" stroke="black" stroke-width="1.5" stroke-linecap="round" stroke-linejoin="round"/>
<path d="M13.861 21.639L15.528 19.972" stroke="black" stroke-width="1.5" stroke-linecap="round" stroke-linejoin="round"/>
<path d="M12.25 18.274V17.226" stroke="black" stroke-width="1.5" stroke-linecap="round" stroke-linejoin="round"/>
<path d="M12.25 17.75H14.607" stroke="black" stroke-width="1.5" stroke-linecap="round" stroke-linejoin="round"/>
<path d="M13.491 14.231L14.231 13.491" stroke="black" stroke-width="1.5" stroke-linecap="round" stroke-linejoin="round"/>
<path d="M13.861 13.861L15.528 15.528" stroke="black" stroke-width="1.5" stroke-linecap="round" stroke-linejoin="round"/>
<path d="M19.25 8.25001V3.76001C19.2518 3.48828 19.1751 3.2218 19.0291 2.9926C18.8831 2.76341 18.674 2.58125 18.427 2.46801C15.7702 1.30883 12.8986 0.723403 10 0.750014C7.10141 0.723403 4.22984 1.30883 1.573 2.46801C1.32597 2.58125 1.1169 2.76341 0.970905 2.9926C0.824909 3.2218 0.748201 3.48828 0.75 3.76001V10.984C0.75 14.516 2.296 19.336 8.978 21.906C9.63584 22.159 10.3642 22.159 11.022 21.906" stroke="black" stroke-width="1.5" stroke-linecap="round" stroke-linejoin="round"/>
<path d="M10.147 9.99594C11.6884 9.99594 12.938 8.74637 12.938 7.20494C12.938 5.66351 11.6884 4.41394 10.147 4.41394C8.60558 4.41394 7.356 5.66351 7.356 7.20494C7.356 8.74637 8.60558 9.99594 10.147 9.99594Z" stroke="black" stroke-width="1.5" stroke-linecap="round" stroke-linejoin="round"/>
<path d="M11.867 11.736C11.1733 11.4546 10.4212 11.3479 9.67662 11.4252C8.93206 11.5026 8.21791 11.7617 7.59693 12.1797C6.97596 12.5978 6.46719 13.1619 6.11533 13.8227C5.76346 14.4834 5.57929 15.2204 5.579 15.969" stroke="black" stroke-width="1.5" stroke-linecap="round" stroke-linejoin="round"/>
</g>
<defs>
<clipPath id="clip0_2_3331">
<rect width="24" height="24" fill="white"/>
</clipPath>
</defs>
</svg>
