<svg width="80" height="80" viewBox="0 0 80 80" fill="none" xmlns="http://www.w3.org/2000/svg">
<path d="M13.1037 8.79684C15.533 8.79684 17.5021 6.8276 17.5021 4.39842C17.5021 1.96924 15.533 0 13.1037 0C11.4756 0 10.0543 0.884522 9.2938 2.19921H8.70529C5.06153 2.19921 2.10766 5.15308 2.10766 8.79684V28.5897C0.893122 28.5897 -0.101867 29.5765 0.00835787 30.7861C0.519652 36.3967 2.97784 41.6794 6.99399 45.6956C9.93904 48.6406 13.5651 50.7479 17.5021 51.864V57.1795C17.5021 60.0525 19.3385 62.4965 21.9014 63.4019C21.9951 72.1273 29.0975 79.1716 37.8448 79.1716C46.6507 79.1716 53.7891 72.0331 53.7891 63.2273V54.4304C53.7891 49.8757 57.4813 46.1834 62.0361 46.1834C66.5909 46.1834 70.2832 49.8757 70.2832 54.4304V59.7541C67.7206 60.6597 65.8847 63.1037 65.8847 65.9763C65.8847 69.6202 68.8385 72.5739 72.4824 72.5739C76.1262 72.5739 79.08 69.6202 79.08 65.9763C79.08 63.1037 77.2441 60.6597 74.6816 59.7541V54.4304C74.6816 47.4466 69.0199 41.785 62.0361 41.785C55.0523 41.785 49.3907 47.4466 49.3907 54.4304V63.2273C49.3907 69.6039 44.2214 74.7731 37.8448 74.7731C31.5263 74.7731 26.3933 69.6976 26.3003 63.4012C28.8621 62.4952 30.6974 60.0516 30.6974 57.1795V51.864C34.6344 50.7479 38.2607 48.6406 41.2057 45.6956C45.2218 41.6794 47.6799 36.3967 48.1912 30.7861C48.3016 29.5765 47.3065 28.5897 46.0919 28.5897V8.79684C46.0919 5.15308 43.1381 2.19921 39.4942 2.19921H38.9057C38.1452 0.884522 36.7239 0 35.0958 0C32.6666 0 30.6974 1.96924 30.6974 4.39842C30.6974 6.8276 32.6666 8.79684 35.0958 8.79684C36.7239 8.79684 38.1452 7.91232 38.9057 6.59763H39.4942C40.7088 6.59763 41.6934 7.58226 41.6934 8.79684V28.5897H42.1542C40.9395 28.5897 39.9706 29.5792 39.8028 30.7821C39.3288 34.177 37.7628 37.3492 35.3111 39.8011C32.3376 42.7744 28.3049 44.4449 24.0998 44.4449C19.8949 44.4449 15.862 42.7744 12.8886 39.8011C10.4367 37.3492 8.87089 34.177 8.39696 30.7821C8.22903 29.5792 7.2601 28.5897 6.0455 28.5897H6.50608V8.79684C6.50608 7.58226 7.49071 6.59763 8.70529 6.59763H9.2938C10.0543 7.91232 11.4756 8.79684 13.1037 8.79684Z" fill="#333333"/>
</svg>
