<svg width="80" height="80" viewBox="0 0 80 80" fill="none" xmlns="http://www.w3.org/2000/svg">
<path fill-rule="evenodd" clip-rule="evenodd" d="M0.76482 15.5367C-0.25494 16.5565 -0.25494 18.2098 0.76482 19.2296C1.78458 20.2492 3.43792 20.2495 4.45768 19.2296L6.30529 17.3818L15.5363 26.6131L8.15061 33.999C7.13076 35.0188 7.13076 36.6721 8.15061 37.6919C9.17021 38.7118 10.8235 38.7118 11.8433 37.6919L15.5354 33.9996L46.9257 65.3906C50.7112 69.1764 56.2434 70.1513 60.9284 68.3156L63.5431 70.9303C64.9105 72.2977 66.8472 72.7483 68.5899 72.2823L74.6224 78.3151C75.642 79.3349 77.2953 79.3349 78.3151 78.3151C79.335 77.2953 79.335 75.642 78.3151 74.6221L72.2817 68.5885C72.7464 66.8465 72.2955 64.9111 70.929 63.5444L68.3145 60.9299C70.1506 56.2445 69.1757 50.7118 65.39 46.9259L33.9997 15.5349L37.6933 11.8413C38.7132 10.8214 38.7132 9.16813 37.6933 8.1483C36.6737 7.1285 35.0202 7.12852 34.0006 8.1483L26.6147 15.5342L17.3839 6.30307L19.229 4.45779C20.2488 3.43801 20.2488 1.78462 19.229 0.764837C18.2094 -0.254946 16.5561 -0.254946 15.5363 0.764837L0.76482 15.5367ZM23.4232 18.7257L14.1924 9.49468L9.49677 14.1903L18.7278 23.4216L23.4232 18.7257ZM30.8082 18.7266L18.7269 30.8081L28.6701 40.7514L40.7515 28.6699L30.8082 18.7266ZM32.3629 44.4444L37.9023 49.984L42.0969 45.7894C43.1168 44.7696 44.7701 44.7696 45.7899 45.7894C46.8097 46.809 46.8097 48.4625 45.7899 49.4823L41.5953 53.677L45.2871 57.369L49.4822 53.1739C50.502 52.1541 52.1553 52.1541 53.1751 53.1739C54.1947 54.1938 54.1947 55.8471 53.1751 56.8669L48.98 61.062L50.1172 62.1991C52.5954 64.6773 56.2172 65.3146 59.2837 64.1111L64.1104 59.2841C65.314 56.2176 64.6767 52.5958 62.1985 50.1174L44.4442 32.3628L32.3629 44.4444ZM67.8 66.8074C67.7811 66.7826 67.7601 66.7587 67.7375 66.7359L65.8777 64.8761C65.7206 65.051 65.5581 65.2225 65.39 65.3906C65.2217 65.559 65.0499 65.7217 64.8748 65.8788L66.7346 67.7388C66.7576 67.7616 66.7818 67.7826 66.8068 67.8018C66.9208 67.5991 67.0641 67.4086 67.2365 67.2362C67.4085 67.0643 67.5983 66.9214 67.8 66.8074Z" fill="#333333"/>
</svg>
