<svg width="24" height="24" viewBox="0 0 24 24" fill="none" xmlns="http://www.w3.org/2000/svg">
<g clip-path="url(#clip0_2_3395)">
<path d="M17.123 9.02999L12.307 4.21399L4.12099 12.4C3.86562 12.6554 3.72215 13.0018 3.72215 13.363C3.72215 13.7242 3.86562 14.0706 4.12099 14.326L6.68899 16.9C6.82833 17.0397 6.99386 17.1505 7.17609 17.2261C7.35833 17.3017 7.55369 17.3407 7.75099 17.3407C7.9483 17.3407 8.14366 17.3017 8.32589 17.2261C8.50813 17.1505 8.67366 17.0397 8.81299 16.9V16.9" stroke="black" stroke-width="1.5" stroke-linecap="round" stroke-linejoin="round"/>
<path d="M4.60196 14.8081L2.19426 17.2158L4.12042 19.142L6.52812 16.7343L4.60196 14.8081Z" stroke="black" stroke-width="1.5" stroke-linecap="round" stroke-linejoin="round"/>
<path d="M0.75 20.587L3.158 18.179" stroke="black" stroke-width="1.5" stroke-linecap="round" stroke-linejoin="round"/>
<path d="M10.863 2.77002L12.307 4.21402" stroke="black" stroke-width="1.5" stroke-linecap="round" stroke-linejoin="round"/>
<path d="M13.752 5.65896L17.123 2.28796" stroke="black" stroke-width="1.5" stroke-linecap="round" stroke-linejoin="round"/>
<path d="M19.049 4.21399L15.678 7.58499" stroke="black" stroke-width="1.5" stroke-linecap="round" stroke-linejoin="round"/>
<path d="M15.678 0.843018L20.494 5.65902" stroke="black" stroke-width="1.5" stroke-linecap="round" stroke-linejoin="round"/>
<path d="M23.25 15.657C23.2532 17.4034 22.6603 19.0987 21.5693 20.4624C20.4783 21.8261 18.9545 22.7767 17.25 23.157C15.5455 22.7767 14.0217 21.8261 12.9307 20.4624C11.8397 19.0987 11.2468 17.4034 11.25 15.657V13.407C11.25 13.0092 11.408 12.6276 11.6893 12.3463C11.9706 12.065 12.3522 11.907 12.75 11.907H21.75C22.1478 11.907 22.5294 12.065 22.8107 12.3463C23.092 12.6276 23.25 13.0092 23.25 13.407V15.657Z" stroke="black" stroke-width="1.5" stroke-linecap="round" stroke-linejoin="round"/>
<path d="M17.25 14.907V19.407" stroke="black" stroke-width="1.5" stroke-linecap="round" stroke-linejoin="round"/>
<path d="M15 17.157H19.5" stroke="black" stroke-width="1.5" stroke-linecap="round" stroke-linejoin="round"/>
</g>
<defs>
<clipPath id="clip0_2_3395">
<rect width="24" height="24" fill="white"/>
</clipPath>
</defs>
</svg>
