<svg width="45" height="45"  fill="none" xmlns="http://www.w3.org/2000/svg"><path d="M22.5 10.862V9M21.104 9h2.793M22.5 34.138V36M23.896 36h-2.793M34.138 22.5H36M36 21.103v2.793M10.862 22.5H9M9 23.897v-2.793M16.681 12.421l-.93-1.613M14.54 11.507l2.42-1.397M28.319 32.579l.93 1.613M30.46 33.493l-2.42 1.397M32.579 16.681l1.612-.93M33.493 14.54l1.396 2.42M12.421 28.319l-1.612.93M11.507 30.46l-1.396-2.42M12.421 16.68l-1.612-.93M10.11 16.96l1.397-2.42M32.579 28.32l1.612.93M34.89 28.04l-1.397 2.42M28.319 12.421l.93-1.612M28.04 10.11l2.42 1.397M16.681 32.578l-.93 1.613M16.96 34.89l-2.42-1.397" stroke="#fff" stroke-width="1.4" stroke-linecap="round" stroke-linejoin="round"/><circle cx="22.5" cy="22.5" r="10.938" stroke="#fff" stroke-width="1.4"/><circle cx="22.034" cy="22.035" r="1.162" stroke="#fff" stroke-width="1.4"/><circle cx="22.034" cy="15.517" r="1.162" stroke="#fff" stroke-width="1.4"/><circle cx="22.965" cy="28.552" r="2.093" stroke="#fff" stroke-width="1.4"/><circle cx="16.856" cy="19.241" r=".833" transform="rotate(-60 16.856 19.241)" stroke="#fff" stroke-width="1.4"/><circle cx="28.846" cy="25.07" transform="rotate(-60 28.846 25.07)" stroke="#fff" stroke-width="1.4" r="1.675"/><mask id="prefix__a" fill="#fff"><circle cx="16.856" cy="25.759" transform="rotate(-120 16.856 25.759)" r="1.259"/></mask><path d="M16.926 25.88a.14.14 0 01-.192-.051l2.425-1.4a2.66 2.66 0 00-3.633-.974l1.4 2.425zm-.192-.051a.14.14 0 01.052-.192l1.4 2.425a2.66 2.66 0 00.973-3.633l-2.425 1.4zm.052-.192a.14.14 0 01.192.051l-2.425 1.4a2.66 2.66 0 003.633.974l-1.4-2.425zm.192.051a.14.14 0 01-.052.192l-1.4-2.425a2.66 2.66 0 00-.973 3.633l2.425-1.4z" fill="#fff" mask="url(#prefix__a)"/><path d="M27.33 17.832a1.628 1.628 0 111.628 2.819 1.628 1.628 0 01-1.628-2.82z" stroke="#fff" stroke-width="1.4"/></svg>