<svg width="24" height="24" viewBox="0 0 24 24" fill="none" xmlns="http://www.w3.org/2000/svg">
<path fill-rule="evenodd" clip-rule="evenodd" d="M21.7001 8.037C21.6065 7.32638 21.3351 6.65086 20.9111 6.073C20.3856 5.54364 19.6729 5.24227 18.9271 5.234C16.1601 5.034 12.0011 5.034 12.0011 5.034C12.0011 5.034 7.8441 5.034 5.0731 5.234C4.32751 5.24211 3.6151 5.54352 3.0901 6.073C2.66421 6.6503 2.39233 7.32655 2.3001 8.038C2.17651 9.10235 2.10974 10.1725 2.1001 11.244V12.744C2.10968 13.8155 2.17644 14.8856 2.3001 15.95C2.3941 16.6621 2.6635 17.3397 3.0841 17.922C3.68779 18.4578 4.46398 18.7588 5.2711 18.77C6.8541 18.921 12.0021 18.97 12.0021 18.97C12.0021 18.97 16.1631 18.97 18.9301 18.77C19.6763 18.7613 20.3893 18.4596 20.9151 17.93C21.3382 17.3514 21.6088 16.6757 21.7021 15.965C21.8257 14.9006 21.8925 13.8305 21.9021 12.759V11.243C21.8908 10.1715 21.8234 9.1014 21.7001 8.037ZM10.0081 14.591V8.971L15.4081 11.79L10.0081 14.591Z" fill="#2F2F38"/>
</svg>
